<svg width="256" height="256" viewBox="0 0 256 256" fill="none" xmlns="http://www.w3.org/2000/svg">
<path d="M94.4199 103.1C87.6034 111.81 95.3667 128.189 100.1 135.289V144.283L164.006 149.964C170.317 140.97 181.994 121.088 178.207 113.514C174.42 105.94 158.01 102.469 150.278 101.68C134.499 98.5239 101.236 94.3898 94.4199 103.1Z" fill="white" stroke="black" stroke-width="1.50547"/>
<path d="M80.6921 163.218C88.6447 161.325 97.5756 153.277 101.047 149.49L93.4731 146.177C89.2127 147.281 77.4731 150.248 64.5974 153.277C51.7217 156.307 51.0274 163.06 52.2898 166.058C54.0255 174.106 62.1359 192.567 80.6921 202.035C85.4949 204.485 89.45 206.206 92.6854 207.378C99.1027 209.704 99.1482 205.781 93.927 201.384C83.9619 192.994 71.4919 178.804 64.5974 170.319C66.6487 168.741 72.7394 165.112 80.6921 163.218Z" fill="white" stroke="black" stroke-width="1.5"/>
<path d="M192.28 159.212C184.207 160.498 172.88 156.47 168.226 154.296L173.961 148.341C178.32 147.736 190.303 145.995 203.36 143.879C216.417 141.763 219.637 147.74 219.615 150.993C221.083 159.093 220.636 179.253 207.1 195.088C200.677 202.602 195.952 206.762 192.62 208.898C189.747 210.74 189.185 208.338 191.112 205.521C198.11 195.295 206.118 172.164 209.866 159.63C207.368 158.954 200.353 157.926 192.28 159.212Z" fill="white" stroke="black" stroke-width="1.5"/>
<path d="M30.0414 168.425L31.8681 175.326C33.0975 179.97 30.3043 182.033 27.2011 178.366C21.994 172.212 21.994 161.798 21.5207 159.904C21.0473 158.011 36.6686 137.656 39.9822 132.449C42.633 128.283 54.0255 123.139 59.3904 121.088L96.7868 139.55L91.1063 152.804L52.2898 132.449L30.0414 168.425Z" fill="white" stroke="black" stroke-width="1.5"/>
<path d="M234.064 175.999L230.801 188.326C230.298 190.229 231.577 191.324 233.042 190.008C234.082 189.073 235.366 187.758 236.905 185.94C242.112 179.786 242.112 169.372 242.585 167.478C243.059 165.585 227.437 145.23 224.124 140.023C221.473 135.857 210.08 130.713 204.715 128.662L167.319 147.123L173 160.378L211.816 140.023L234.064 175.999Z" fill="white" stroke="black" stroke-width="1.5"/>
<path d="M83.0588 141.976C83.0588 136.295 94.4198 137.242 97.7334 137.242L102.94 143.869L92.9996 146.236L105.307 178.898L109.989 182.499C111.873 183.949 109.972 187.195 107.759 186.324C104.234 184.936 100.717 183.635 97.7334 182.685C87.3192 179.372 83.0588 147.656 83.0588 141.976Z" fill="white" stroke="black" stroke-width="1.5"/>
<path d="M189.568 176.472C181.52 174.579 161.165 161.798 160.692 159.904L166.846 156.117C177.102 158.8 198.088 164.354 199.982 165.111C202.349 166.058 207.556 169.845 204.716 178.366C201.875 186.887 175.367 206.768 163.059 208.662C157.185 209.565 152.704 206.92 149.676 203.701C148.265 202.2 150.476 199.935 152.462 200.481C154.759 201.112 157.528 201.561 160.692 201.561C170.633 201.561 197.615 178.366 189.568 176.472Z" fill="white" stroke="black" stroke-width="1.5"/>
<path d="M89.686 146.177L100.574 130.082L167.792 138.129L179.153 153.751C175.524 157.222 167.224 164.449 163.059 165.585C157.852 167.005 108.148 156.117 100.574 156.591C94.5144 156.97 90.7906 149.806 89.686 146.177Z" fill="white" stroke="black" stroke-width="1.5"/>
<path d="M89.686 145.23L100.574 129.135L167.792 137.183L179.153 152.804C175.524 156.275 167.224 163.502 163.059 164.638C157.852 166.058 108.148 155.171 100.574 155.644C94.5144 156.023 90.7906 148.859 89.686 145.23Z" fill="white"/>
<path d="M125.47 119.252C126.018 118.138 128.054 118.198 129.004 118.367C128.261 120.525 126.674 125.41 126.268 127.69C125.761 130.539 128.787 132.504 127.794 134.161C126.8 135.818 123.375 131.512 121.453 130.209C119.531 128.906 119.751 126.035 120.523 123.494C121.296 120.954 124.786 120.643 125.47 119.252Z" fill="#DCDCDC"/>
<path d="M138.656 121.159C138.373 119.951 136.375 119.551 135.411 119.502C135.65 121.772 136.099 126.889 135.982 129.202C135.836 132.092 132.445 133.327 133.041 135.165C133.636 137.003 137.942 133.576 140.108 132.739C142.273 131.902 142.704 129.054 142.523 126.405C142.341 123.756 139.01 122.669 138.656 121.159Z" fill="#DCDCDC"/>
<path d="M39.8182 69.6628C40.2255 67.2409 31.8424 51.8353 27.6 44.4352C25.5547 40.8024 23.0145 38.8851 22 38.3806C23.5273 35.8578 27.6 37.3715 31.6727 38.3806C34.9309 39.1879 43.5515 53.8535 47.4545 61.0854L50 69.6628C46.4364 70.6719 39.4109 72.0846 39.8182 69.6628Z" fill="white" stroke="black" stroke-width="1.50547"/>
<path d="M65.871 103.684L5 71.1228C8.68295 68.2737 26.9954 72.3099 35.6912 74.6842L48.9908 64L62.8018 76.7193V80.2807H72.5207L95.0276 130.14L116 141.333L110.373 151L87.8664 144.386L65.871 103.684Z" fill="white" stroke="black" stroke-width="1.50547"/>
<path d="M231.353 114.642C235.546 94.5208 218.347 71.1635 209.223 62L192.335 70.1887L195.247 87.1509C193.888 89.1006 190.821 92.6491 189.423 91.2453C187.676 89.4906 183.6 86.566 181.27 89.4906C179.407 91.8302 174.67 91.6352 172.535 91.2453C169.818 89.1006 164.266 86.8 163.8 94.7547C163.218 104.698 194.082 105.283 192.335 107.038C190.937 108.442 175.447 127.119 167.876 136.283L144 141.547L152.153 155L172.535 152.66L187.094 141.547C194.47 135.698 210.155 123.649 213.882 122.245C217.609 120.842 218.541 118.541 218.541 117.566L231.353 114.642Z" fill="white" stroke="black" stroke-width="1.50547"/>
<path d="M178.862 44.7897C170.454 37.8227 156.6 42.6486 150.724 45.9325C152.442 42.3802 158.78 34.9147 170.384 33.4715C184.889 31.6676 194.96 46.3226 202.86 52.9992C209.18 58.3405 211.047 65.139 211.191 67.8706L206.396 81.4286C201.948 81.9818 193.168 82.1311 193.635 78.3024C194.218 73.5165 189.371 53.4984 178.862 44.7897Z" fill="white" stroke="black" stroke-width="1.50547"/>
</svg>
