<svg width="584" height="85" viewBox="0 0 584 85" fill="none" xmlns="http://www.w3.org/2000/svg">
<path d="M59.4488 33.388C59.446 33.9318 59.1498 34.5009 58.5181 34.967C57.8863 35.4332 56.9687 35.7487 55.914 35.7433C54.8593 35.7378 53.9449 35.413 53.318 34.9403C52.6911 34.4677 52.4008 33.8957 52.4036 33.3518C52.4064 32.808 52.7025 32.239 53.3342 31.7729C53.966 31.3066 54.8836 30.9912 55.9384 30.9966C56.9931 31.002 57.9074 31.3269 58.5344 31.7995C59.1613 32.2721 59.4516 32.8442 59.4488 33.388Z" fill="black" stroke="black" stroke-width="2" stroke-linecap="round" stroke-linejoin="round"/>
<path d="M91.984 33.555C91.9812 34.0988 91.685 34.6679 91.0533 35.134C90.4215 35.6002 89.5039 35.9157 88.4492 35.9103C87.3944 35.9048 86.4801 35.58 85.8531 35.1073C85.2263 34.6347 84.9359 34.0627 84.9387 33.5188C84.9415 32.975 85.2377 32.406 85.8694 31.9398C86.5012 31.4736 87.4188 31.1582 88.4735 31.1636C89.5282 31.169 90.4426 31.4939 91.0696 31.9665C91.6964 32.4391 91.9867 33.0112 91.984 33.555Z" fill="black" stroke="black" stroke-width="2" stroke-linecap="round" stroke-linejoin="round"/>
<path d="M67.0736 33.4416C66.5679 34.9854 66.9685 38.0535 72.6166 37.9754C78.2648 37.8973 78.787 34.8994 78.3421 33.4102" stroke="black" stroke-width="2" stroke-linecap="round" stroke-linejoin="round"/>
<circle cx="42.974" cy="41.9739" r="12.9079" transform="rotate(0.29411 42.974 41.9739)" fill="#FF7C7C" fill-opacity="0.19"/>
<circle cx="102.32" cy="43.1426" r="12.9079" transform="rotate(0.29411 102.32 43.1426)" fill="#FF7C7C" fill-opacity="0.19"/>
<path d="M205.449 33.4073C205.448 33.5076 205.35 33.8384 204.653 34.201C204.002 34.5394 203.036 34.7768 201.916 34.7728C200.796 34.7687 199.833 34.5243 199.188 34.1812C198.496 33.8136 198.403 33.4821 198.404 33.3818C198.404 33.2815 198.502 32.9507 199.199 32.5881C199.85 32.2497 200.816 32.0123 201.936 32.0163C203.056 32.0204 204.019 32.2648 204.665 32.6079C205.356 32.9755 205.45 33.307 205.449 33.4073Z" fill="black" stroke="black" stroke-width="2" stroke-linecap="round" stroke-linejoin="round"/>
<path d="M237.984 33.525C237.983 33.6253 237.885 33.9561 237.188 34.3187C236.538 34.6571 235.571 34.8945 234.451 34.8905C233.331 34.8864 232.369 34.642 231.723 34.2989C231.031 33.9312 230.938 33.5998 230.939 33.4995C230.939 33.3992 231.038 33.0684 231.735 32.7058C232.385 32.3674 233.351 32.13 234.471 32.134C235.591 32.1381 236.554 32.3824 237.2 32.7255C237.891 33.0932 237.985 33.4247 237.984 33.525Z" fill="black" stroke="black" stroke-width="2" stroke-linecap="round" stroke-linejoin="round"/>
<path d="M213.074 33.4416C212.568 34.9854 212.968 38.0535 218.617 37.9754C224.265 37.8973 224.787 34.8994 224.342 33.4102" stroke="black" stroke-width="2" stroke-linecap="round" stroke-linejoin="round"/>
<circle cx="188.974" cy="41.9739" r="12.9079" transform="rotate(0.29411 188.974 41.9739)" fill="#FF7C7C" fill-opacity="0.19"/>
<circle cx="248.32" cy="43.1426" r="12.9079" transform="rotate(0.29411 248.32 43.1426)" fill="#FF7C7C" fill-opacity="0.19"/>
<mask id="path-11-inside-1" fill="white">
<ellipse rx="4.52261" ry="1.40896" transform="matrix(0.999998 0.00214387 -0.0122899 0.999924 347.926 33.4186)"/>
</mask>
<ellipse rx="4.52261" ry="1.40896" transform="matrix(0.999998 0.00214387 -0.0122899 0.999924 347.926 33.4186)" fill="black"/>
<path d="M350.449 33.424C350.453 33.0656 350.578 32.7852 350.695 32.6105C350.803 32.4496 350.905 32.3746 350.92 32.3631C350.941 32.3479 350.842 32.4179 350.54 32.511C349.961 32.6897 349.038 32.8299 347.933 32.8276L347.884 36.8273C349.277 36.8302 350.62 36.6599 351.683 36.3322C352.203 36.1721 352.77 35.94 353.253 35.5886C353.695 35.2667 354.435 34.5623 354.449 33.4325L350.449 33.424ZM347.933 32.8276C346.829 32.8252 345.91 32.6811 345.334 32.4998C345.035 32.4055 344.938 32.335 344.958 32.3503C344.974 32.3619 345.073 32.4373 345.177 32.5987C345.29 32.7739 345.408 33.0548 345.404 33.4131L341.404 33.4046C341.39 34.5343 342.112 35.2418 342.546 35.5657C343.021 35.9191 343.582 36.1536 344.098 36.316C345.153 36.6482 346.491 36.8243 347.884 36.8273L347.933 32.8276ZM345.404 33.4131C345.399 33.7715 345.274 34.0519 345.157 34.2266C345.049 34.3875 344.948 34.4625 344.932 34.474C344.911 34.4892 345.01 34.4192 345.312 34.3261C345.892 34.1474 346.814 34.0072 347.919 34.0095L347.968 30.0098C346.575 30.0069 345.232 30.1772 344.169 30.5049C343.649 30.665 343.082 30.8971 342.599 31.2485C342.157 31.5705 341.417 32.2749 341.404 33.4046L345.404 33.4131ZM347.919 34.0095C349.024 34.0119 349.943 34.156 350.518 34.3373C350.818 34.4316 350.915 34.5021 350.894 34.4868C350.879 34.4752 350.779 34.3998 350.675 34.2385C350.562 34.0632 350.444 33.7823 350.449 33.424L354.449 33.4325C354.463 32.3028 353.74 31.5953 353.306 31.2714C352.832 30.918 352.27 30.6835 351.755 30.5211C350.7 30.1889 349.361 30.0128 347.968 30.0098L347.919 34.0095Z" fill="black" mask="url(#path-11-inside-1)"/>
<mask id="path-13-inside-2" fill="white">
<ellipse rx="4.52261" ry="1.40896" transform="matrix(0.999998 0.00214387 -0.0122899 0.999924 380.461 33.4884)"/>
</mask>
<ellipse rx="4.52261" ry="1.40896" transform="matrix(0.999998 0.00214387 -0.0122899 0.999924 380.461 33.4884)" fill="black"/>
<path d="M382.984 33.4938C382.988 33.1354 383.113 32.855 383.23 32.6803C383.338 32.5194 383.44 32.4444 383.455 32.433C383.476 32.4177 383.378 32.4878 383.076 32.5808C382.496 32.7596 381.573 32.8998 380.469 32.8974L380.419 36.8971C381.813 36.9001 383.155 36.7297 384.218 36.4021C384.738 36.2419 385.305 36.0098 385.788 35.6585C386.231 35.3365 386.97 34.6321 386.984 33.5024L382.984 33.4938ZM380.469 32.8974C379.364 32.895 378.445 32.7509 377.869 32.5697C377.57 32.4753 377.473 32.4048 377.493 32.4202C377.509 32.4317 377.608 32.5071 377.712 32.6685C377.825 32.8437 377.943 33.1246 377.939 33.483L373.939 33.4744C373.925 34.6041 374.647 35.3116 375.082 35.6355C375.556 35.9889 376.117 36.2235 376.633 36.3858C377.688 36.718 379.026 36.8941 380.419 36.8971L380.469 32.8974ZM377.939 33.483C377.934 33.8414 377.809 34.1217 377.692 34.2964C377.584 34.4573 377.483 34.5323 377.467 34.5438C377.446 34.5591 377.545 34.489 377.847 34.3959C378.427 34.2172 379.349 34.077 380.454 34.0794L380.503 30.0797C379.11 30.0767 377.767 30.247 376.704 30.5747C376.185 30.7348 375.617 30.9669 375.135 31.3183C374.692 31.6403 373.953 32.3447 373.939 33.4744L377.939 33.483ZM380.454 34.0794C381.559 34.0817 382.478 34.2259 383.053 34.4071C383.353 34.5014 383.45 34.5719 383.429 34.5566C383.414 34.545 383.314 34.4696 383.21 34.3083C383.098 34.133 382.98 33.8522 382.984 33.4938L386.984 33.5024C386.998 32.3726 386.276 31.6651 385.841 31.3413C385.367 30.9878 384.805 30.7533 384.29 30.591C383.235 30.2588 381.896 30.0827 380.503 30.0797L380.454 34.0794Z" fill="black" mask="url(#path-13-inside-2)"/>
<path d="M359.074 33.4416C358.568 34.9854 358.968 38.0535 364.617 37.9754C370.265 37.8973 370.787 34.8994 370.342 33.4102" stroke="black" stroke-width="2" stroke-linecap="round" stroke-linejoin="round"/>
<circle cx="334.974" cy="41.9739" r="12.9079" transform="rotate(0.29411 334.974 41.9739)" fill="#FF7C7C" fill-opacity="0.19"/>
<circle cx="394.32" cy="43.1426" r="12.9079" transform="rotate(0.29411 394.32 43.1426)" fill="#FF7C7C" fill-opacity="0.19"/>
<mask id="path-18-inside-3" fill="white">
<ellipse rx="4.5226" ry="0.439863" transform="matrix(1 0.000668827 -0.0393669 0.999225 493.926 33.4425)"/>
</mask>
<ellipse rx="4.5226" ry="0.439863" transform="matrix(1 0.000668827 -0.0393669 0.999225 493.926 33.4425)" fill="black"/>
<path d="M496.449 33.4442C496.478 32.7118 496.887 32.2404 497.097 32.0463C497.308 31.8524 497.502 31.7583 497.566 31.7286C497.705 31.6637 497.784 31.6529 497.715 31.6685C497.611 31.6922 497.378 31.7296 496.997 31.7663C496.258 31.8373 495.193 31.8844 493.988 31.8836L493.83 35.8805C495.123 35.8814 496.323 35.8316 497.227 35.7447C497.667 35.7023 498.101 35.6454 498.458 35.5643C498.62 35.5275 498.879 35.4616 499.141 35.3396C499.266 35.2813 499.508 35.1582 499.75 34.9347C499.993 34.7111 500.419 34.2097 500.449 33.4469L496.449 33.4442ZM493.988 31.8836C492.782 31.8828 491.721 31.8343 490.988 31.7623C490.61 31.7251 490.38 31.6874 490.277 31.6635C490.21 31.6478 490.287 31.6588 490.422 31.7238C490.483 31.7536 490.67 31.8479 490.865 32.0421C491.061 32.2365 491.432 32.7084 491.404 33.4409L487.404 33.4382C487.374 34.201 487.76 34.7029 487.985 34.9269C488.21 35.1506 488.442 35.274 488.562 35.3325C488.815 35.4549 489.068 35.5211 489.227 35.5582C489.578 35.6397 490.007 35.6972 490.444 35.7401C491.341 35.8283 492.538 35.8797 493.83 35.8805L493.988 31.8836ZM491.404 33.4409C491.375 34.1733 490.966 34.6447 490.755 34.8388C490.545 35.0327 490.35 35.1268 490.286 35.1565C490.147 35.2214 490.069 35.2322 490.137 35.2166C490.242 35.1928 490.474 35.1555 490.856 35.1188C491.595 35.0478 492.659 35.0007 493.865 35.0015L494.022 31.0046C492.73 31.0037 491.53 31.0535 490.625 31.1404C490.185 31.1828 489.752 31.2396 489.394 31.3208C489.232 31.3576 488.974 31.4235 488.712 31.5455C488.586 31.6038 488.345 31.7269 488.102 31.9504C487.86 32.174 487.434 32.6754 487.404 33.4382L491.404 33.4409ZM493.865 35.0015C495.07 35.0023 496.131 35.0508 496.864 35.1228C497.243 35.16 497.472 35.1977 497.575 35.2216C497.643 35.2373 497.565 35.2263 497.431 35.1613C497.369 35.1315 497.182 35.0372 496.987 34.843C496.792 34.6486 496.42 34.1767 496.449 33.4442L500.449 33.4469C500.479 32.6841 500.092 32.1822 499.867 31.9582C499.643 31.7345 499.411 31.6111 499.29 31.5526C499.038 31.4302 498.784 31.364 498.625 31.3269C498.274 31.2453 497.845 31.1879 497.408 31.145C496.511 31.0568 495.315 31.0054 494.022 31.0046L493.865 35.0015Z" fill="black" mask="url(#path-18-inside-3)"/>
<mask id="path-20-inside-4" fill="white">
<ellipse rx="4.5226" ry="0.439863" transform="matrix(1 0.000668827 -0.0393669 0.999225 526.461 33.4643)"/>
</mask>
<ellipse rx="4.5226" ry="0.439863" transform="matrix(1 0.000668827 -0.0393669 0.999225 526.461 33.4643)" fill="black"/>
<path d="M528.984 33.466C529.013 32.7335 529.422 32.2621 529.632 32.068C529.843 31.8741 530.037 31.7801 530.101 31.7503C530.24 31.6854 530.319 31.6746 530.25 31.6902C530.146 31.714 529.913 31.7514 529.532 31.788C528.793 31.859 527.728 31.9062 526.523 31.9053L526.365 35.9022C527.658 35.9031 528.858 35.8533 529.762 35.7664C530.203 35.7241 530.636 35.6672 530.993 35.5861C531.156 35.5492 531.414 35.4833 531.676 35.3613C531.801 35.303 532.043 35.1799 532.285 34.9565C532.528 34.7328 532.954 34.2315 532.984 33.4686L528.984 33.466ZM526.523 31.9053C525.317 31.9045 524.256 31.856 523.523 31.784C523.145 31.7468 522.915 31.7091 522.812 31.6852C522.745 31.6696 522.823 31.6805 522.957 31.7455C523.018 31.7754 523.205 31.8697 523.401 32.0638C523.596 32.2582 523.968 32.7301 523.939 33.4626L519.939 33.4599C519.909 34.2227 520.295 34.7247 520.52 34.9486C520.745 35.1723 520.977 35.2958 521.097 35.3543C521.35 35.4766 521.603 35.5428 521.762 35.5799C522.113 35.6615 522.542 35.7189 522.979 35.7619C523.877 35.85 525.073 35.9014 526.365 35.9022L526.523 31.9053ZM523.939 33.4626C523.91 34.1951 523.501 34.6665 523.29 34.8606C523.08 35.0545 522.885 35.1485 522.822 35.1783C522.682 35.2431 522.604 35.2539 522.672 35.2383C522.777 35.2146 523.01 35.1772 523.391 35.1405C524.13 35.0695 525.195 35.0224 526.4 35.0232L526.557 31.0263C525.265 31.0254 524.065 31.0752 523.16 31.1622C522.72 31.2045 522.287 31.2614 521.929 31.3425C521.767 31.3793 521.509 31.4452 521.247 31.5672C521.121 31.6255 520.88 31.7487 520.637 31.9721C520.395 32.1957 519.969 32.6971 519.939 33.4599L523.939 33.4626ZM526.4 35.0232C527.605 35.024 528.666 35.0725 529.4 35.1446C529.778 35.1817 530.008 35.2194 530.11 35.2433C530.178 35.259 530.1 35.2481 529.966 35.183C529.904 35.1532 529.717 35.0589 529.522 34.8647C529.327 34.6704 528.955 34.1984 528.984 33.466L532.984 33.4686C533.014 32.7058 532.628 32.2039 532.403 31.98C532.178 31.7562 531.946 31.6328 531.825 31.5743C531.573 31.4519 531.32 31.3857 531.16 31.3487C530.809 31.2671 530.38 31.2096 529.944 31.1667C529.046 31.0785 527.85 31.0272 526.557 31.0263L526.4 35.0232Z" fill="black" mask="url(#path-20-inside-4)"/>
<path d="M505.074 33.4416C504.568 34.9854 504.968 38.0535 510.617 37.9754C516.265 37.8973 516.787 34.8994 516.342 33.4102" stroke="black" stroke-width="2" stroke-linecap="round" stroke-linejoin="round"/>
<circle cx="480.974" cy="41.9739" r="12.9079" transform="rotate(0.29411 480.974 41.9739)" fill="#FF7C7C" fill-opacity="0.19"/>
<circle cx="540.32" cy="43.1426" r="12.9079" transform="rotate(0.29411 540.32 43.1426)" fill="#FF7C7C" fill-opacity="0.19"/>
</svg>
