<svg width="256" height="256" viewBox="0 0 256 256" fill="none" xmlns="http://www.w3.org/2000/svg">
<g clip-path="url(#clip0)">
<path d="M73.5 93.3105V108.511C81.7333 103.444 100.733 92.2972 110.867 88.2438C121 84.1905 168.289 83.5994 190.667 83.8105L203.967 67.3438C205.656 66.7105 205.36 62.9105 190.667 52.7772C172.3 40.1105 125.433 57.2105 102.633 61.0105C84.3933 64.0505 75.6111 83.8105 73.5 93.3105Z" fill="white" stroke="black" stroke-width="2.53334"/>
<path d="M162.054 198.609C165.776 197.92 177.705 185.123 183.204 178.811H191.664C193.779 178.811 196.74 180.963 191.664 189.57C185.319 200.33 157.401 199.469 162.054 198.609Z" fill="white" stroke="black" stroke-width="2.53334"/>
<path d="M27.1612 101.367C35.6464 99.3412 47.8281 105.801 52.8583 109.285C59.0096 116.014 71.0611 130.511 70.057 134.669C69.0529 138.827 40.0555 155.005 25.6823 162.574L38.1197 128.53L17.2125 109.773C16.9932 107.815 18.676 103.393 27.1612 101.367Z" fill="white" stroke="black" stroke-width="2.53334" stroke-linecap="round" stroke-linejoin="round"/>
<path d="M51.4951 120.326L44.8702 119.466M52.2259 124.835L45.7148 126.08M52.8648 130.648L46.5703 134.399" stroke="black" stroke-width="1.26667" stroke-linecap="round" stroke-linejoin="round"/>
<path d="M59.5875 133.502C59.5804 133.492 59.5734 133.482 59.5666 133.473V117.365L108.33 79.6502C108.416 79.6149 108.539 79.5653 108.697 79.5024C109.043 79.3641 109.557 79.1619 110.223 78.9085C111.554 78.4016 113.49 77.6901 115.899 76.8751C120.719 75.2443 127.426 73.2026 134.975 71.5563C150.156 68.2454 168.415 66.6096 181.654 72.7754C189.567 76.4608 195.744 79.9955 201.243 84.614C206.738 89.2296 211.606 94.9705 216.842 103.12C218.123 105.115 219.383 106.955 220.584 108.711C226.046 116.691 230.302 122.91 229.908 133.827C229.539 144.066 225.494 149.588 220.178 156.846C219.119 158.292 218.009 159.806 216.869 161.44C211.558 169.048 206.616 174.209 201.11 178.28C195.593 182.358 189.458 185.381 181.696 188.663C153.172 200.725 132.785 190.502 105.229 176.684C103.216 175.675 101.165 174.646 99.069 173.606C90.2559 169.23 80.3497 159.198 72.5647 150.106C68.6941 145.585 65.3854 141.343 63.0443 138.23C61.8741 136.674 60.9465 135.402 60.3123 134.52C59.9952 134.078 59.7515 133.735 59.5875 133.502Z" fill="white" stroke="black" stroke-width="2.53334"/>
<path d="M107.7 207.311C113.273 206.297 131.133 187.466 139.367 178.177H152.033C155.2 178.177 159.633 181.344 152.033 194.011C142.533 209.844 100.733 208.577 107.7 207.311Z" fill="white" stroke="black" stroke-width="2.53334"/>
<path d="M83.7641 145.904C84.1989 143.916 82.3327 117.854 81.3452 105.071C77.643 106.76 77.6118 114.044 76.1922 121.961C74.7727 129.877 83.2205 148.389 83.7641 145.904Z" fill="#DCDCDC"/>
<path d="M107.368 156.637C108.347 153.464 107.872 112.675 107.512 92.6771C100.815 95.7333 99.9752 107.192 96.624 119.796C93.2728 132.4 106.143 160.603 107.368 156.637Z" fill="#DCDCDC"/>
<path d="M135.944 163.156C136.937 159.031 133.858 105.207 132.194 78.8109C124.262 82.4306 123.947 97.4908 120.658 113.908C117.369 130.326 134.704 168.312 135.944 163.156Z" fill="#DCDCDC"/>
</g>
<defs>
<clipPath id="clip0">
<rect width="256" height="256" fill="white"/>
</clipPath>
</defs>
</svg>
