<svg width="259" height="141" viewBox="0 0 259 141" fill="none" xmlns="http://www.w3.org/2000/svg">
<g filter="url(#filter0_d)">
<path d="M113.021 7.2382C66.2208 3.6382 28.5208 8.7382 15.5208 11.7382C7.02082 16.2382 15.5208 95.7382 24.0208 108.738C32.5208 121.738 213.521 115.738 231.521 108.738C249.521 101.738 235.021 33.7382 231.521 24.7382C228.021 15.7382 171.521 11.7382 113.021 7.2382Z" fill="white"/>
<path d="M113.021 7.2382C66.2208 3.6382 28.5208 8.7382 15.5208 11.7382C7.02082 16.2382 15.5208 95.7382 24.0208 108.738C32.5208 121.738 213.521 115.738 231.521 108.738C249.521 101.738 235.021 33.7382 231.521 24.7382C228.021 15.7382 171.521 11.7382 113.021 7.2382Z" stroke="black" stroke-width="4"/>
</g>
<path d="M70.6 53.4C69.12 52.84 67.8 52.28 66.6 51.6C67.52 51.16 68.52 50.52 69.44 49.84C70.92 48.72 70.92 47.36 69.6 46.32C68.32 45.32 66.96 45.72 66.24 46.76C65.28 48.24 64.64 49.12 63.92 49.84C63.24 49.28 62.56 48.64 61.96 48C62.84 47.48 63.8 46.84 64.64 46.16C66.08 45 65.96 43.68 64.6 42.68C63.32 41.72 61.96 42.16 61.28 43.24C60.72 44.16 60.28 44.84 59.88 45.4C59.28 44.56 58.76 43.68 58.2 42.68C57.76 41.88 57.12 41.64 56.36 41.88C55.52 42.16 55.28 42.84 55.52 43.6C56.8 47.64 58.88 51 61.64 53.8H57.52C55.84 53.8 54.92 54.76 54.96 56.48C55.08 59.4 54.72 61.48 53.2 62.92C52.56 63.52 52.4 64.12 52.84 64.76C53.16 65.24 53.6 65.44 54.12 65.32C54.08 65.44 54.08 65.52 54.08 65.64C54.08 66.6 54.64 67.16 55.6 67.16H55.88C56.48 69.28 57.6 71.32 59.04 73.12C57.48 74.52 55.6 75.72 53.36 76.72C52.4 77.16 52.08 77.72 52.32 78.52C52.6 79.32 53.24 79.68 54.2 79.48C56.96 78.84 59.6 77.72 61.88 76C63.68 77.52 65.68 78.64 67.8 79.28C69.32 79.76 70.84 79.36 71.36 77.6C71.88 75.88 71.16 74.52 69.44 74.08C67.92 73.68 66.56 73.2 65.32 72.68C66.48 71.2 67.44 69.48 68.2 67.52C68.88 65.76 68.16 64.16 66.16 64.16H56.2C58.48 62.44 59.4 60.08 59.4 57.4C59.4 57.08 59.64 56.92 59.92 56.92H61.6C61.88 56.92 62.08 57.12 62.08 57.4V59.64C62.08 62.52 62.72 63.64 66.16 63.76C67.52 63.8 68.84 63.64 69.96 63.24C71 62.88 71.4 62.2 71.12 61C70.84 59.88 70.04 59.48 69.24 59.76C68.52 60 68.04 60.08 67.48 60.08C66.6 60.08 66.52 59.64 66.52 58.44V57.72C67.12 58.12 67.72 58.48 68.36 58.84C70.04 59.76 72 59.44 72.76 57.6C73.56 55.68 72.76 54.2 70.6 53.4ZM53.56 68.76C53.68 66.8 52.64 66.04 51.04 66.04H45.68C45.8 65.28 45.88 64.52 46 63.8H50.92C52.6 63.8 53.52 62.88 53.52 61.2V56.56C53.52 54.88 52.6 54.04 50.92 54.04H50.56C52.2 52.28 53.68 50.2 54.88 47.72C55.8 45.88 55.6 43.96 54.04 43.08C52.48 42.2 50.72 42.48 49.52 43.48H41.16C40.12 43.48 39.52 44.08 39.52 45.12C39.52 46.16 40.12 46.76 41.16 46.76H48.76C49.12 46.76 49.28 47 49.12 47.32C48.64 48.32 48.12 49.24 47.48 50.16C46.08 49 44.68 48.12 43.12 47.36C42.28 46.96 41.64 47.08 41.16 47.68C40.68 48.28 40.6 49 41.28 49.68C42.48 50.88 43.72 52.12 44.76 53.36C42.8 55.24 40.4 56.84 37.68 58.2C36.8 58.64 36.48 59.36 36.8 60.16C37.12 61 37.76 61.28 38.68 61C41.8 60.08 44.76 58.72 47.4 56.8H47.88C48.16 56.8 48.36 57 48.36 57.28V60.12C48.36 60.4 48.16 60.6 47.88 60.6H45.64C45.28 60.16 44.68 59.92 43.84 59.84C42.24 59.72 41.16 60.44 41 61.92C40.76 64.08 40.44 66 39.96 68.36C39.72 69.88 40.4 71 42.08 71.2C43.6 71.44 44.68 70.88 45.08 69.24H47.6C47.92 69.24 48.08 69.4 48.08 69.76C48 70.96 47.84 72.56 47.6 73.76C47.24 75.52 46.52 75.72 42.6 74.72C41.68 74.48 41.12 74.76 40.88 75.48C40.64 76.2 40.76 76.84 41.36 77.28C46.32 80.96 51.8 80.52 52.84 75.12C53.12 73.68 53.4 71.4 53.56 68.76ZM62.6 67.84C62.32 68.72 61.92 69.52 61.4 70.32C60.28 69.4 59.32 68.36 58.56 67.16H62.12C62.56 67.16 62.72 67.44 62.6 67.84ZM112.36 68.64C112.2 67.8 111.68 67.44 110.92 67.44C110.2 67.44 109.76 67.92 109.8 68.92C109.88 73.16 109.76 73.52 108.56 73.52C107.64 73.52 107.4 73.32 107.4 72.6V66.12H108.04C109.72 66.12 110.64 65.2 110.64 63.52V46.16C110.64 44.48 109.72 43.56 108.04 43.56H94.68C93 43.56 92.08 44.48 92.08 46.16V63.52C92.08 65.2 93 66.12 94.68 66.12H94.92C94.44 71.08 92 74.32 86.96 76.6C86.04 77.04 85.68 77.6 85.96 78.44C86.2 79.2 86.8 79.6 87.76 79.44C95.24 78 99.84 73.04 100.52 66.12H101.72V73.4C101.72 77.52 102.24 78.48 107.96 78.48C113.2 78.48 114 77.08 112.36 68.64ZM91.72 66.32C91.36 65.6 90.68 65.36 89.8 65.68C89 65.96 88.2 66.2 87.44 66.44V58.44H89.64C90.76 58.44 91.32 57.84 91.32 56.76C91.32 55.68 90.76 55.08 89.64 55.08H87.44V47.4H89.84C90.92 47.4 91.48 46.8 91.48 45.76C91.48 44.72 90.92 44.12 89.84 44.12H78.76C77.68 44.12 77.12 44.72 77.12 45.76C77.12 46.8 77.68 47.4 78.76 47.4H81.28V55.08H79.08C78 55.08 77.4 55.68 77.4 56.76C77.4 57.84 78 58.44 79.08 58.44H81.28V68C80.52 68.16 79.76 68.28 79 68.4C76.76 68.76 76 70.12 76.56 72.12C77.12 74.08 78.64 74.76 80.72 73.92C84.52 72.44 88.56 70.4 91.32 68.12C91.92 67.6 92.08 67.04 91.72 66.32ZM97.92 47.4C97.92 47.12 98.12 46.92 98.4 46.92H104.32C104.6 46.92 104.8 47.12 104.8 47.4V49.84H97.92V47.4ZM97.92 53.12H104.8V56.2H97.92V53.12ZM97.92 59.48H104.8V62.28C104.8 62.56 104.6 62.76 104.32 62.76H98.4C98.12 62.76 97.92 62.56 97.92 62.28V59.48ZM120.44 49.04C121.8 50.84 123.32 51.2 124.84 49.68C126.28 48.24 126.04 46.52 124.28 45.12C122.88 44 121.12 42.96 119.56 42.4C118.72 42.04 118.08 42.04 117.52 42.68C116.96 43.32 117 44.12 117.52 44.88C118.48 46.16 119.44 47.72 120.44 49.04ZM151.76 44.4H128.48C127.36 44.4 126.72 45.04 126.72 46.2C126.72 47.36 127.36 48 128.48 48H143.92V72.44C143.92 74.72 143.04 75.2 138.36 74.68C137.2 74.56 136.52 74.92 136.32 75.84C136.12 76.8 136.44 77.48 137.44 77.92C144.84 81.32 150.16 79.76 150.16 73.76V48H151.76C152.88 48 153.52 47.36 153.52 46.2C153.52 45.04 152.88 44.4 151.76 44.4ZM125.08 59.32C126.52 57.76 126.4 56.12 124.52 54.8C122.96 53.68 121.12 52.68 119.44 51.92C118.6 51.52 117.88 51.72 117.4 52.36C116.88 53.04 116.84 53.68 117.48 54.52C118.76 56.2 119.84 57.64 120.68 58.8C122.04 60.64 123.68 60.84 125.08 59.32ZM141.6 64.92V54.56C141.6 52.88 140.68 51.96 139 51.96H130.8C129.12 51.96 128.2 52.88 128.2 54.56V64.92C128.2 66.6 129.12 67.52 130.8 67.52H139C140.68 67.52 141.6 66.6 141.6 64.92ZM136.24 63.76C136.24 64.04 136.04 64.24 135.76 64.24H134.04C133.76 64.24 133.56 64.04 133.56 63.76V55.72C133.56 55.44 133.76 55.24 134.04 55.24H135.76C136.04 55.24 136.24 55.44 136.24 55.72V63.76ZM125.8 61C124.96 60.76 124.28 61.16 123.88 62.12C122.12 66.28 120.24 70 118.28 73.2C116.96 75.44 117.32 77.24 119.52 78.28C121.68 79.32 123.52 78.48 124.2 75.92C125.2 72.2 126.04 67.76 126.8 63.08C126.92 61.88 126.64 61.24 125.8 61ZM192.92 68.2C190.32 64.88 188.76 61.12 188.04 56.56C188.84 56.16 189.64 55.68 190.4 55.12C191.6 54.24 192.04 52.68 190.68 51.48C189.36 50.28 188 50.56 186.96 52C185.96 53.36 184.84 54.56 183.6 55.64C182.92 54.08 182.12 52.72 181.2 51.6C182.76 50.36 184.16 48.96 185.2 47.56H190.68C191.72 47.56 192.32 46.96 192.32 45.92C192.32 44.88 191.72 44.28 190.68 44.28H173.68C172.64 44.28 172.04 44.88 172.04 45.92C172.04 46.96 172.64 47.56 173.68 47.56H178.04C176.8 49.8 174.92 51.84 172.36 53.44C171.52 53.96 171.36 54.64 171.72 55.4C172.08 56.16 172.72 56.4 173.64 56.04C175.24 55.4 176.88 54.56 178.44 53.6L178.8 54.68C177.2 57.36 174.92 59.64 172 61.52C171.56 61.8 171.32 62.12 171.24 62.48V46.56C171.24 44.88 170.32 43.96 168.64 43.96H161.52C159.84 43.96 158.92 44.88 158.92 46.56V55.96C158.92 68.92 158.52 73.08 156.76 76.96C156.4 77.76 156.56 78.48 157.28 78.88C158 79.28 158.64 79.24 159.24 78.56C162.32 75.08 163.6 71.6 164.04 65.16H165.96V73.28C165.96 75 165.64 75.44 163.76 75.28C162.84 75.2 162.24 75.48 162.04 76.24C161.84 76.96 162.04 77.6 162.8 78C167.08 80.24 171.24 78.84 171.24 74.96V71.44C171.64 72.2 172.24 72.44 173.16 72.08C175.92 71 178.4 69.56 180.6 67.84C180.44 74.48 179.48 76.08 174.8 75.2C173.92 75.04 173.28 75.36 173 76.12C172.72 76.88 173.16 77.6 173.96 77.96C182.24 81.52 186.12 78.48 185.96 68.04C185.88 64.08 185.36 60.72 184.48 57.92C184.92 57.84 185.32 57.68 185.76 57.56C185.88 63.28 186.64 67.8 188.16 71.24C189 73.08 190.64 73.8 192.36 72.68C194.08 71.56 194.2 69.84 192.92 68.2ZM164.76 47.24H165.48C165.76 47.24 165.96 47.44 165.96 47.72V53.24H164.28V47.72C164.28 47.44 164.48 47.24 164.76 47.24ZM164.2 61.96C164.28 60.4 164.28 58.72 164.28 56.84V56.44H165.96V61.96H164.2ZM171.92 69.48C171.6 69.68 171.36 69.92 171.24 70.16V62.96C171.28 63.12 171.32 63.28 171.4 63.44C171.76 64.2 172.4 64.36 173.28 64C175.68 63 178.04 61.6 180.12 59.92L180.36 61.52C178.24 64.56 175.52 67.08 171.92 69.48ZM201.8 66.84C203.36 66.84 204.44 66 204.56 64.44L205.8 50.2C206.04 47.52 204.48 46.04 201.8 46.04C199.16 46.04 197.56 47.52 197.8 50.2L199 64.44C199.12 66 200.24 66.84 201.8 66.84ZM201.8 76.56C203.96 76.56 205.8 74.8 205.8 72.56C205.8 70.52 203.96 68.72 201.8 68.72C199.56 68.72 197.72 70.52 197.72 72.56C197.72 74.8 199.56 76.56 201.8 76.56ZM215.355 66.84C216.915 66.84 217.995 66 218.115 64.44L219.355 50.2C219.595 47.52 218.035 46.04 215.355 46.04C212.715 46.04 211.115 47.52 211.355 50.2L212.555 64.44C212.675 66 213.795 66.84 215.355 66.84ZM215.355 76.56C217.515 76.56 219.355 74.8 219.355 72.56C219.355 70.52 217.515 68.72 215.355 68.72C213.115 68.72 211.275 70.52 211.275 72.56C211.275 74.8 213.115 76.56 215.355 76.56Z" fill="black"/>
<defs>
<filter id="filter0_d" x="0" y="3.05176e-05" width="258.357" height="140.4" filterUnits="userSpaceOnUse" color-interpolation-filters="sRGB">
<feFlood flood-opacity="0" result="BackgroundImageFix"/>
<feColorMatrix in="SourceAlpha" type="matrix" values="0 0 0 0 0 0 0 0 0 0 0 0 0 0 0 0 0 0 127 0"/>
<feOffset dx="3" dy="9"/>
<feGaussianBlur stdDeviation="6.5"/>
<feColorMatrix type="matrix" values="0 0 0 0 0 0 0 0 0 0 0 0 0 0 0 0 0 0 0.25 0"/>
<feBlend mode="normal" in2="BackgroundImageFix" result="effect1_dropShadow"/>
<feBlend mode="normal" in="SourceGraphic" in2="effect1_dropShadow" result="shape"/>
</filter>
</defs>
</svg>
