<svg width="344" height="140" viewBox="0 0 344 140" fill="none" xmlns="http://www.w3.org/2000/svg">
<g filter="url(#filter0_d)">
<path d="M150.908 7.23371C86.5558 3.64676 34.7168 8.72828 16.8413 11.7174C5.15342 16.2011 16.8413 95.413 28.5291 108.366C40.217 121.319 289.099 115.341 313.85 108.366C338.601 101.391 318.663 33.6377 313.85 24.6703C309.037 15.7029 231.348 11.7174 150.908 7.23371Z" fill="white"/>
<path d="M150.908 7.23371C86.5558 3.64676 34.7168 8.72828 16.8413 11.7174C5.15342 16.2011 16.8413 95.413 28.5291 108.366C40.217 121.319 289.099 115.341 313.85 108.366C338.601 101.391 318.663 33.6377 313.85 24.6703C309.037 15.7029 231.348 11.7174 150.908 7.23371Z" stroke="black" stroke-width="4"/>
</g>
<path d="M70.6 53.4C69.12 52.84 67.8 52.28 66.6 51.6C67.52 51.16 68.52 50.52 69.44 49.84C70.92 48.72 70.92 47.36 69.6 46.32C68.32 45.32 66.96 45.72 66.24 46.76C65.28 48.24 64.64 49.12 63.92 49.84C63.24 49.28 62.56 48.64 61.96 48C62.84 47.48 63.8 46.84 64.64 46.16C66.08 45 65.96 43.68 64.6 42.68C63.32 41.72 61.96 42.16 61.28 43.24C60.72 44.16 60.28 44.84 59.88 45.4C59.28 44.56 58.76 43.68 58.2 42.68C57.76 41.88 57.12 41.64 56.36 41.88C55.52 42.16 55.28 42.84 55.52 43.6C56.8 47.64 58.88 51 61.64 53.8H57.52C55.84 53.8 54.92 54.76 54.96 56.48C55.08 59.4 54.72 61.48 53.2 62.92C52.56 63.52 52.4 64.12 52.84 64.76C53.16 65.24 53.6 65.44 54.12 65.32C54.08 65.44 54.08 65.52 54.08 65.64C54.08 66.6 54.64 67.16 55.6 67.16H55.88C56.48 69.28 57.6 71.32 59.04 73.12C57.48 74.52 55.6 75.72 53.36 76.72C52.4 77.16 52.08 77.72 52.32 78.52C52.6 79.32 53.24 79.68 54.2 79.48C56.96 78.84 59.6 77.72 61.88 76C63.68 77.52 65.68 78.64 67.8 79.28C69.32 79.76 70.84 79.36 71.36 77.6C71.88 75.88 71.16 74.52 69.44 74.08C67.92 73.68 66.56 73.2 65.32 72.68C66.48 71.2 67.44 69.48 68.2 67.52C68.88 65.76 68.16 64.16 66.16 64.16H56.2C58.48 62.44 59.4 60.08 59.4 57.4C59.4 57.08 59.64 56.92 59.92 56.92H61.6C61.88 56.92 62.08 57.12 62.08 57.4V59.64C62.08 62.52 62.72 63.64 66.16 63.76C67.52 63.8 68.84 63.64 69.96 63.24C71 62.88 71.4 62.2 71.12 61C70.84 59.88 70.04 59.48 69.24 59.76C68.52 60 68.04 60.08 67.48 60.08C66.6 60.08 66.52 59.64 66.52 58.44V57.72C67.12 58.12 67.72 58.48 68.36 58.84C70.04 59.76 72 59.44 72.76 57.6C73.56 55.68 72.76 54.2 70.6 53.4ZM53.56 68.76C53.68 66.8 52.64 66.04 51.04 66.04H45.68C45.8 65.28 45.88 64.52 46 63.8H50.92C52.6 63.8 53.52 62.88 53.52 61.2V56.56C53.52 54.88 52.6 54.04 50.92 54.04H50.56C52.2 52.28 53.68 50.2 54.88 47.72C55.8 45.88 55.6 43.96 54.04 43.08C52.48 42.2 50.72 42.48 49.52 43.48H41.16C40.12 43.48 39.52 44.08 39.52 45.12C39.52 46.16 40.12 46.76 41.16 46.76H48.76C49.12 46.76 49.28 47 49.12 47.32C48.64 48.32 48.12 49.24 47.48 50.16C46.08 49 44.68 48.12 43.12 47.36C42.28 46.96 41.64 47.08 41.16 47.68C40.68 48.28 40.6 49 41.28 49.68C42.48 50.88 43.72 52.12 44.76 53.36C42.8 55.24 40.4 56.84 37.68 58.2C36.8 58.64 36.48 59.36 36.8 60.16C37.12 61 37.76 61.28 38.68 61C41.8 60.08 44.76 58.72 47.4 56.8H47.88C48.16 56.8 48.36 57 48.36 57.28V60.12C48.36 60.4 48.16 60.6 47.88 60.6H45.64C45.28 60.16 44.68 59.92 43.84 59.84C42.24 59.72 41.16 60.44 41 61.92C40.76 64.08 40.44 66 39.96 68.36C39.72 69.88 40.4 71 42.08 71.2C43.6 71.44 44.68 70.88 45.08 69.24H47.6C47.92 69.24 48.08 69.4 48.08 69.76C48 70.96 47.84 72.56 47.6 73.76C47.24 75.52 46.52 75.72 42.6 74.72C41.68 74.48 41.12 74.76 40.88 75.48C40.64 76.2 40.76 76.84 41.36 77.28C46.32 80.96 51.8 80.52 52.84 75.12C53.12 73.68 53.4 71.4 53.56 68.76ZM62.6 67.84C62.32 68.72 61.92 69.52 61.4 70.32C60.28 69.4 59.32 68.36 58.56 67.16H62.12C62.56 67.16 62.72 67.44 62.6 67.84ZM112.36 68.64C112.2 67.8 111.68 67.44 110.92 67.44C110.2 67.44 109.76 67.92 109.8 68.92C109.88 73.16 109.76 73.52 108.56 73.52C107.64 73.52 107.4 73.32 107.4 72.6V66.12H108.04C109.72 66.12 110.64 65.2 110.64 63.52V46.16C110.64 44.48 109.72 43.56 108.04 43.56H94.68C93 43.56 92.08 44.48 92.08 46.16V63.52C92.08 65.2 93 66.12 94.68 66.12H94.92C94.44 71.08 92 74.32 86.96 76.6C86.04 77.04 85.68 77.6 85.96 78.44C86.2 79.2 86.8 79.6 87.76 79.44C95.24 78 99.84 73.04 100.52 66.12H101.72V73.4C101.72 77.52 102.24 78.48 107.96 78.48C113.2 78.48 114 77.08 112.36 68.64ZM91.72 66.32C91.36 65.6 90.68 65.36 89.8 65.68C89 65.96 88.2 66.2 87.44 66.44V58.44H89.64C90.76 58.44 91.32 57.84 91.32 56.76C91.32 55.68 90.76 55.08 89.64 55.08H87.44V47.4H89.84C90.92 47.4 91.48 46.8 91.48 45.76C91.48 44.72 90.92 44.12 89.84 44.12H78.76C77.68 44.12 77.12 44.72 77.12 45.76C77.12 46.8 77.68 47.4 78.76 47.4H81.28V55.08H79.08C78 55.08 77.4 55.68 77.4 56.76C77.4 57.84 78 58.44 79.08 58.44H81.28V68C80.52 68.16 79.76 68.28 79 68.4C76.76 68.76 76 70.12 76.56 72.12C77.12 74.08 78.64 74.76 80.72 73.92C84.52 72.44 88.56 70.4 91.32 68.12C91.92 67.6 92.08 67.04 91.72 66.32ZM97.92 47.4C97.92 47.12 98.12 46.92 98.4 46.92H104.32C104.6 46.92 104.8 47.12 104.8 47.4V49.84H97.92V47.4ZM97.92 53.12H104.8V56.2H97.92V53.12ZM97.92 59.48H104.8V62.28C104.8 62.56 104.6 62.76 104.32 62.76H98.4C98.12 62.76 97.92 62.56 97.92 62.28V59.48ZM150.68 73.24C147.92 72.12 145.88 70.6 144.28 68.6H151.08C152.16 68.6 152.8 67.96 152.8 66.88C152.8 65.8 152.16 65.24 151.08 65.24H143.76C144.08 63.8 144.28 62.28 144.4 60.64H148.92C150 60.64 150.6 60 150.6 58.92C150.6 57.84 150 57.28 148.92 57.28H137.76C138.04 56.24 137.88 55.4 137.28 54.8C140.52 54.24 143.64 53.52 146.2 52.52C146.36 52.88 146.52 53.24 146.64 53.64C147.32 55.68 148.92 56.08 150.52 55.12C152.12 54.16 152.36 52.64 151.12 51.04C149.68 49.16 148.04 47.12 146 45.44C145.32 44.88 144.64 44.8 144 45.24C143.36 45.68 143.2 46.36 143.6 47.2C143.96 47.96 144.4 48.76 144.84 49.64C142.72 49.92 140.44 50.08 138.12 50.16C139.12 49.16 140.16 48 141.04 46.72C142.48 44.64 142.04 43 140.08 42.24C138.16 41.48 136.68 42 136 44.12C135.28 46.32 134.48 48.24 133.48 50.12H133.12C131.04 50.04 130.2 51.16 130.36 52.92C130.52 54.56 131.48 55.32 132.88 55.4C132.72 55.72 132.64 56.08 132.56 56.52C132.24 58.72 131.68 60.84 131 62.68C130.68 63.52 130.88 64.2 131.56 64.56C132.28 64.96 133.08 64.76 133.72 64.12C134.76 63.08 135.6 61.88 136.28 60.64H138.16C138.08 62.32 137.92 63.84 137.64 65.24H131.92C130.84 65.24 130.2 65.8 130.2 66.88C130.2 67.96 130.84 68.6 131.92 68.6H136.64C135.2 72.16 132.6 74.64 128.52 76.68C127.64 77.12 127.28 77.76 127.6 78.6C127.92 79.44 128.52 79.72 129.48 79.48C135.12 78.12 139.2 75.16 141.68 70.8C143 74.24 145.24 77.12 147.68 78.56C150.04 79.96 151.56 79.6 152.48 77.96C153.56 76 153.2 74.28 150.68 73.24ZM130.24 63.32C129.76 62.64 129.08 62.52 128.16 62.88L126.76 63.48V55.2H128.2C129.28 55.2 129.88 54.6 129.88 53.52C129.88 52.44 129.28 51.84 128.2 51.84H126.76V45.08C126.76 43.12 125.68 42.4 123.76 42.4C121.8 42.4 120.72 43.12 120.72 45.08V51.84H118.88C117.8 51.84 117.2 52.44 117.2 53.52C117.2 54.6 117.8 55.2 118.88 55.2H120.72V65.48C120.24 65.6 119.72 65.76 119.2 65.88C117.32 66.32 116.52 67.56 117.12 69.48C117.72 71.4 119.44 71.92 121.24 71.12C124.32 69.76 127.36 67.64 129.8 65.44C130.64 64.72 130.72 64.04 130.24 63.32ZM190.2 72.48C187.64 71.68 185.4 70.76 183.4 69.76C185.8 67 187.72 63.72 189.04 59.92C190.04 57.08 188.52 55.08 185.24 55.08H181.84C182.64 52.52 183.32 49.88 183.88 47.36C184.28 45.44 183.2 43.76 180.6 43.76H160.36C159.24 43.76 158.64 44.44 158.64 45.56C158.64 46.8 159.24 47.36 160.36 47.36H164.56C164.4 61.92 162.48 69.64 157.28 76.72C156.72 77.48 156.76 78.44 157.32 79.08C157.84 79.68 158.88 79.72 159.64 79.12C165.32 74.6 168.48 68.52 170.04 60.84C171.12 64.36 172.84 67.52 175.16 70.28C172.2 72.88 168.4 74.96 163.6 76.8C162.68 77.16 162.36 77.76 162.56 78.52C162.76 79.32 163.32 79.84 164.24 79.68C169.96 78.72 174.84 76.8 178.84 73.92C181.32 75.96 184.28 77.68 187.64 78.96C190.12 79.92 191.84 79.44 192.68 77.16C193.48 75 192.8 73.28 190.2 72.48ZM176.68 47.36C177 47.36 177.12 47.56 177.08 47.88C176.84 49.6 176.32 52.4 175.68 55.08H170.96C171.2 52.64 171.36 50.08 171.44 47.36H176.68ZM182.32 59.24C181.36 62.08 180.16 64.52 178.56 66.6C175.96 64.44 174.04 61.88 172.52 58.68H181.92C182.28 58.68 182.44 58.88 182.32 59.24ZM200.44 62.8C203.44 62.28 206.36 61.52 209.12 60.36V60.72C209.12 62.4 210.16 63.28 212.08 63.28C214 63.28 215.04 62.4 215.04 60.72V46.8H215.64C216.6 46.8 217.24 46.24 217.24 45.2C217.24 44.16 216.6 43.6 215.64 43.6H198.92C197.88 43.6 197.28 44.2 197.28 45.16C197.28 46.2 197.88 46.8 198.92 46.8H200.24V57.76H199.68C197.68 57.8 196.96 58.84 197.12 60.56C197.28 62.36 198.64 63.12 200.44 62.8ZM217.24 57.92C217.24 59.6 218.16 60.52 219.84 60.52H228.72C230.4 60.52 231.32 59.6 231.32 57.92V47.28C231.32 45.6 230.4 44.68 228.72 44.68H219.84C218.16 44.68 217.24 45.6 217.24 47.28V57.92ZM209.12 46.8V48.24H206V46.8H209.12ZM223.08 48.36C223.08 48.08 223.28 47.88 223.56 47.88H225C225.28 47.88 225.48 48.08 225.48 48.36V56.84C225.48 57.12 225.28 57.32 225 57.32H223.56C223.28 57.32 223.08 57.12 223.08 56.84V48.36ZM209.12 52.72H206V51.2H209.12V52.72ZM206 55.68H209.12V57.08L206 57.44V55.68ZM230.8 74.76H218.2V72.44H227.64C228.72 72.44 229.28 71.84 229.28 70.8C229.28 69.76 228.72 69.16 227.64 69.16H218.2V66.96C220.92 66.76 223.44 66.48 225.48 66.12C227.36 65.8 228.2 64.32 227.48 62.64C226.72 60.88 225.32 60.6 223.56 61.16C217.56 63 209.8 64.04 202.56 64.44C201.48 64.48 201.08 65 201.12 65.84C201.16 66.68 201.64 67.2 202.68 67.24C205.52 67.36 208.6 67.36 211.64 67.28V69.16H202.36C201.28 69.16 200.72 69.76 200.72 70.8C200.72 71.84 201.28 72.44 202.36 72.44H211.64V74.76H199.2C198.16 74.76 197.52 75.36 197.52 76.44C197.52 77.52 198.16 78.12 199.2 78.12H230.8C231.84 78.12 232.48 77.52 232.48 76.44C232.48 75.36 231.84 74.76 230.8 74.76ZM281.8 66.84C283.36 66.84 284.44 66 284.56 64.44L285.8 50.2C286.04 47.52 284.48 46.04 281.8 46.04C279.16 46.04 277.56 47.52 277.8 50.2L279 64.44C279.12 66 280.24 66.84 281.8 66.84ZM281.8 76.56C283.96 76.56 285.8 74.8 285.8 72.56C285.8 70.52 283.96 68.72 281.8 68.72C279.56 68.72 277.72 70.52 277.72 72.56C277.72 74.8 279.56 76.56 281.8 76.56ZM295.355 66.84C296.915 66.84 297.995 66 298.115 64.44L299.355 50.2C299.595 47.52 298.035 46.04 295.355 46.04C292.715 46.04 291.115 47.52 291.355 50.2L292.555 64.44C292.675 66 293.795 66.84 295.355 66.84ZM295.355 76.56C297.515 76.56 299.355 74.8 299.355 72.56C299.355 70.52 297.515 68.72 295.355 68.72C293.115 68.72 291.275 70.52 291.275 72.56C291.275 74.8 293.115 76.56 295.355 76.56Z" fill="black"/>
<path fill-rule="evenodd" clip-rule="evenodd" d="M237.004 72.7601C236.986 72.521 237.027 72.2577 237.214 72.0347C237.695 71.4592 238.796 70.6143 238.796 70.6143L238.8 70.5987C238.81 70.6544 238.815 70.7101 238.815 70.7658C240.239 69.5536 241.6 67.849 242.518 66.1066H242.233C240.904 66.1066 240.176 65.2353 240.176 63.6444V60.614C240.176 59.0231 240.904 58.1519 242.233 58.1519H252.454C253.783 58.1519 254.511 59.0231 254.511 60.614V63.6444C254.511 65.2353 253.783 66.1066 252.454 66.1066H249.416C249.859 67.243 250.397 68.2657 251.03 69.1748C251.41 68.6445 251.758 68.0006 252.075 67.3566C252.771 66.0308 253.657 65.8035 254.543 66.7884C255.461 67.8112 255.397 69.0612 254.227 69.8945C253.72 70.3491 253.151 70.69 252.581 70.9931C253.151 71.5234 253.783 72.0158 254.48 72.4704C255.935 73.4174 256.378 74.8568 255.461 76.4856C254.543 78.1144 253.309 78.3796 252.011 77.0538C249.321 74.4401 247.676 70.5385 247.328 66.1066H246.821C246.442 66.9021 245.967 67.6596 245.397 68.3794V73.3416C245.809 73.228 246.22 73.1143 246.663 72.9628C247.328 72.7355 247.708 72.9249 247.992 73.6068C248.246 74.2128 248.024 74.781 247.613 75.1219C245.967 76.4856 243.562 77.7356 241.347 78.4175C240.113 78.7963 239.195 78.2659 238.942 76.8644C238.689 75.5007 239.163 74.5916 240.492 74.4022C240.651 74.3833 240.809 74.3549 240.967 74.3265C241.125 74.2981 241.284 74.2696 241.442 74.2507V72.2052C240.524 72.8492 239.575 73.3795 238.594 73.834C237.866 74.1371 237.391 73.9477 237.138 73.2658C237.075 73.0764 237.043 72.9249 237.043 72.7355C237.03 72.7437 237.017 72.7519 237.004 72.7601ZM252.739 53.7578H241.948C240.619 53.7578 239.891 52.8866 239.891 51.2956V47.3562C239.891 45.7652 240.619 44.894 241.948 44.894H252.739C254.068 44.894 254.796 45.7652 254.796 47.3562V51.2956C254.796 52.8866 254.068 53.7578 252.739 53.7578ZM243.594 47.8486C243.372 47.8486 243.214 48.038 243.214 48.3031V50.3486C243.214 50.6138 243.372 50.8032 243.594 50.8032H243.91V47.8486H243.594ZM247.708 47.8486H247.043V50.8032H247.708V47.8486ZM251.094 47.8486H250.777V50.8032H251.094C251.315 50.8032 251.473 50.6138 251.473 50.3486V48.3031C251.473 48.038 251.315 47.8486 251.094 47.8486ZM239.037 55.9548C239.037 54.97 239.48 54.4397 240.303 54.4397H254.416C255.239 54.4397 255.682 54.97 255.682 55.9548C255.682 56.9397 255.239 57.47 254.416 57.47H240.303C239.48 57.47 239.037 56.9397 239.037 55.9548ZM244.511 61.0307C244.29 61.0307 244.132 61.2201 244.132 61.4853V62.7732C244.132 63.0383 244.29 63.2277 244.511 63.2277H250.239C250.461 63.2277 250.619 63.0383 250.619 62.7732V61.4853C250.619 61.2201 250.461 61.0307 250.239 61.0307H244.511Z" fill="black"/>
<path fill-rule="evenodd" clip-rule="evenodd" d="M255 75.3077C255.019 75.2869 255.038 75.2656 255.056 75.2439C255.09 76.0015 255.504 76.5697 256.296 76.8727C257.501 77.3273 258.397 76.6833 258.603 75.206C258.879 73.3499 258.879 71.0014 258.879 68.8423V68.8422C258.879 68.0468 258.569 67.5922 257.983 67.5543C257.398 67.5165 256.985 67.8574 256.847 68.5771C256.537 70.1302 256.124 71.7969 255.573 73.312V73.2097L255 75.3077ZM273 60.6981C273 61.683 272.518 62.2133 271.622 62.2133H261.738V62.8573C261.738 63.1224 261.91 63.3118 262.151 63.3118H269.694C271.14 63.3118 271.932 64.183 271.898 65.8498C271.829 69.0695 271.691 72.1378 271.416 74.903C271.002 78.8804 267.317 79.7895 263.529 77.4788C262.909 77.1 262.805 76.6076 262.977 75.9257C263.15 75.2439 263.597 75.0166 264.321 75.1303C266.594 75.4712 266.904 75.206 267.076 73.7287C267.089 73.5639 267.106 73.384 267.124 73.1911C267.156 72.852 267.192 72.4724 267.214 72.062C266.697 72.1757 266.249 71.8726 265.974 71.115C265.674 70.3031 265.328 69.5591 264.997 68.849C264.834 68.499 264.675 68.1572 264.527 67.8195C264.286 67.2892 264.355 66.8725 264.734 66.6073C265.147 66.3043 265.457 66.4179 265.871 66.7589C266.387 67.1755 266.869 67.7816 267.352 68.4634C267.386 67.8195 267.386 67.2134 267.386 66.6452C267.386 66.3422 267.214 66.1907 266.973 66.1907H259.12C257.777 66.1907 257.054 65.3952 257.054 63.9179V49.9024C257.054 48.3115 257.846 47.4402 259.292 47.4402H261.118C261.221 46.6069 261.324 45.6978 261.393 44.9781C261.565 43.425 262.53 42.8189 264.08 43.0462C265.423 43.2356 266.249 44.2962 265.871 45.622C265.698 46.2281 265.388 46.8342 265.01 47.4402H268.557C270.004 47.4402 270.796 48.3115 270.796 49.9024V55.6601C270.796 57.2511 270.004 58.1223 268.557 58.1223H261.738V59.1829H271.622C272.518 59.1829 273 59.7133 273 60.6981ZM266.112 51.4555V50.6979C266.112 50.4327 265.939 50.2433 265.698 50.2433H262.151C261.91 50.2433 261.738 50.4327 261.738 50.6979V51.4555H266.112ZM265.698 55.3192C265.939 55.3192 266.112 55.1298 266.112 54.8647V54.1071H261.738V55.3192H265.698ZM265.32 71.7211C265.629 72.6302 265.354 73.3499 264.493 73.7287C263.632 74.1075 263.012 73.6151 262.84 72.5923C262.719 71.9078 262.552 71.1588 262.372 70.353C262.243 69.7766 262.108 69.1711 261.979 68.5392C261.841 67.8574 262.013 67.4407 262.495 67.2513C262.977 67.0619 263.356 67.2892 263.666 67.8195C264.252 68.8422 264.837 70.3196 265.32 71.7211ZM260.222 67.4786C260.739 67.4028 261.049 67.668 261.255 68.3119C261.806 70.0544 262.151 71.9863 262.392 73.5772C262.564 74.6757 262.082 75.3575 261.083 75.5091C260.084 75.6606 259.533 75.0545 259.533 73.8802C259.533 72.4644 259.503 70.7839 259.471 68.9934C259.469 68.8677 259.467 68.7416 259.464 68.615C259.464 67.9331 259.706 67.5543 260.222 67.4786Z" fill="black"/>
<defs>
<filter id="filter0_d" x="0" y="1.52588e-05" width="344" height="140" filterUnits="userSpaceOnUse" color-interpolation-filters="sRGB">
<feFlood flood-opacity="0" result="BackgroundImageFix"/>
<feColorMatrix in="SourceAlpha" type="matrix" values="0 0 0 0 0 0 0 0 0 0 0 0 0 0 0 0 0 0 127 0"/>
<feOffset dx="3" dy="9"/>
<feGaussianBlur stdDeviation="6.5"/>
<feColorMatrix type="matrix" values="0 0 0 0 0 0 0 0 0 0 0 0 0 0 0 0 0 0 0.25 0"/>
<feBlend mode="normal" in2="BackgroundImageFix" result="effect1_dropShadow"/>
<feBlend mode="normal" in="SourceGraphic" in2="effect1_dropShadow" result="shape"/>
</filter>
</defs>
</svg>
