<svg width="382" height="140" viewBox="0 0 382 140" fill="none" xmlns="http://www.w3.org/2000/svg">
<g filter="url(#filter0_d)">
<path d="M167.718 7.23371C95.5785 3.64676 37.466 8.72828 17.4271 11.7174C4.32485 16.2011 17.4271 95.413 30.5294 108.366C43.6317 121.319 322.634 115.341 350.38 108.366C378.126 101.391 355.775 33.6377 350.38 24.6703C344.985 15.7029 257.893 11.7174 167.718 7.23371Z" fill="white"/>
<path d="M167.718 7.23371C95.5785 3.64676 37.466 8.72828 17.4271 11.7174C4.32485 16.2011 17.4271 95.413 30.5294 108.366C43.6317 121.319 322.634 115.341 350.38 108.366C378.126 101.391 355.775 33.6377 350.38 24.6703C344.985 15.7029 257.893 11.7174 167.718 7.23371Z" stroke="black" stroke-width="4"/>
</g>
<path d="M70.6 53.4C69.12 52.84 67.8 52.28 66.6 51.6C67.52 51.16 68.52 50.52 69.44 49.84C70.92 48.72 70.92 47.36 69.6 46.32C68.32 45.32 66.96 45.72 66.24 46.76C65.28 48.24 64.64 49.12 63.92 49.84C63.24 49.28 62.56 48.64 61.96 48C62.84 47.48 63.8 46.84 64.64 46.16C66.08 45 65.96 43.68 64.6 42.68C63.32 41.72 61.96 42.16 61.28 43.24C60.72 44.16 60.28 44.84 59.88 45.4C59.28 44.56 58.76 43.68 58.2 42.68C57.76 41.88 57.12 41.64 56.36 41.88C55.52 42.16 55.28 42.84 55.52 43.6C56.8 47.64 58.88 51 61.64 53.8H57.52C55.84 53.8 54.92 54.76 54.96 56.48C55.08 59.4 54.72 61.48 53.2 62.92C52.56 63.52 52.4 64.12 52.84 64.76C53.16 65.24 53.6 65.44 54.12 65.32C54.08 65.44 54.08 65.52 54.08 65.64C54.08 66.6 54.64 67.16 55.6 67.16H55.88C56.48 69.28 57.6 71.32 59.04 73.12C57.48 74.52 55.6 75.72 53.36 76.72C52.4 77.16 52.08 77.72 52.32 78.52C52.6 79.32 53.24 79.68 54.2 79.48C56.96 78.84 59.6 77.72 61.88 76C63.68 77.52 65.68 78.64 67.8 79.28C69.32 79.76 70.84 79.36 71.36 77.6C71.88 75.88 71.16 74.52 69.44 74.08C67.92 73.68 66.56 73.2 65.32 72.68C66.48 71.2 67.44 69.48 68.2 67.52C68.88 65.76 68.16 64.16 66.16 64.16H56.2C58.48 62.44 59.4 60.08 59.4 57.4C59.4 57.08 59.64 56.92 59.92 56.92H61.6C61.88 56.92 62.08 57.12 62.08 57.4V59.64C62.08 62.52 62.72 63.64 66.16 63.76C67.52 63.8 68.84 63.64 69.96 63.24C71 62.88 71.4 62.2 71.12 61C70.84 59.88 70.04 59.48 69.24 59.76C68.52 60 68.04 60.08 67.48 60.08C66.6 60.08 66.52 59.64 66.52 58.44V57.72C67.12 58.12 67.72 58.48 68.36 58.84C70.04 59.76 72 59.44 72.76 57.6C73.56 55.68 72.76 54.2 70.6 53.4ZM53.56 68.76C53.68 66.8 52.64 66.04 51.04 66.04H45.68C45.8 65.28 45.88 64.52 46 63.8H50.92C52.6 63.8 53.52 62.88 53.52 61.2V56.56C53.52 54.88 52.6 54.04 50.92 54.04H50.56C52.2 52.28 53.68 50.2 54.88 47.72C55.8 45.88 55.6 43.96 54.04 43.08C52.48 42.2 50.72 42.48 49.52 43.48H41.16C40.12 43.48 39.52 44.08 39.52 45.12C39.52 46.16 40.12 46.76 41.16 46.76H48.76C49.12 46.76 49.28 47 49.12 47.32C48.64 48.32 48.12 49.24 47.48 50.16C46.08 49 44.68 48.12 43.12 47.36C42.28 46.96 41.64 47.08 41.16 47.68C40.68 48.28 40.6 49 41.28 49.68C42.48 50.88 43.72 52.12 44.76 53.36C42.8 55.24 40.4 56.84 37.68 58.2C36.8 58.64 36.48 59.36 36.8 60.16C37.12 61 37.76 61.28 38.68 61C41.8 60.08 44.76 58.72 47.4 56.8H47.88C48.16 56.8 48.36 57 48.36 57.28V60.12C48.36 60.4 48.16 60.6 47.88 60.6H45.64C45.28 60.16 44.68 59.92 43.84 59.84C42.24 59.72 41.16 60.44 41 61.92C40.76 64.08 40.44 66 39.96 68.36C39.72 69.88 40.4 71 42.08 71.2C43.6 71.44 44.68 70.88 45.08 69.24H47.6C47.92 69.24 48.08 69.4 48.08 69.76C48 70.96 47.84 72.56 47.6 73.76C47.24 75.52 46.52 75.72 42.6 74.72C41.68 74.48 41.12 74.76 40.88 75.48C40.64 76.2 40.76 76.84 41.36 77.28C46.32 80.96 51.8 80.52 52.84 75.12C53.12 73.68 53.4 71.4 53.56 68.76ZM62.6 67.84C62.32 68.72 61.92 69.52 61.4 70.32C60.28 69.4 59.32 68.36 58.56 67.16H62.12C62.56 67.16 62.72 67.44 62.6 67.84ZM112.36 68.64C112.2 67.8 111.68 67.44 110.92 67.44C110.2 67.44 109.76 67.92 109.8 68.92C109.88 73.16 109.76 73.52 108.56 73.52C107.64 73.52 107.4 73.32 107.4 72.6V66.12H108.04C109.72 66.12 110.64 65.2 110.64 63.52V46.16C110.64 44.48 109.72 43.56 108.04 43.56H94.68C93 43.56 92.08 44.48 92.08 46.16V63.52C92.08 65.2 93 66.12 94.68 66.12H94.92C94.44 71.08 92 74.32 86.96 76.6C86.04 77.04 85.68 77.6 85.96 78.44C86.2 79.2 86.8 79.6 87.76 79.44C95.24 78 99.84 73.04 100.52 66.12H101.72V73.4C101.72 77.52 102.24 78.48 107.96 78.48C113.2 78.48 114 77.08 112.36 68.64ZM91.72 66.32C91.36 65.6 90.68 65.36 89.8 65.68C89 65.96 88.2 66.2 87.44 66.44V58.44H89.64C90.76 58.44 91.32 57.84 91.32 56.76C91.32 55.68 90.76 55.08 89.64 55.08H87.44V47.4H89.84C90.92 47.4 91.48 46.8 91.48 45.76C91.48 44.72 90.92 44.12 89.84 44.12H78.76C77.68 44.12 77.12 44.72 77.12 45.76C77.12 46.8 77.68 47.4 78.76 47.4H81.28V55.08H79.08C78 55.08 77.4 55.68 77.4 56.76C77.4 57.84 78 58.44 79.08 58.44H81.28V68C80.52 68.16 79.76 68.28 79 68.4C76.76 68.76 76 70.12 76.56 72.12C77.12 74.08 78.64 74.76 80.72 73.92C84.52 72.44 88.56 70.4 91.32 68.12C91.92 67.6 92.08 67.04 91.72 66.32ZM97.92 47.4C97.92 47.12 98.12 46.92 98.4 46.92H104.32C104.6 46.92 104.8 47.12 104.8 47.4V49.84H97.92V47.4ZM97.92 53.12H104.8V56.2H97.92V53.12ZM97.92 59.48H104.8V62.28C104.8 62.56 104.6 62.76 104.32 62.76H98.4C98.12 62.76 97.92 62.56 97.92 62.28V59.48ZM126 68.8C125.2 69.64 125.12 70.44 125.68 71.24C126.24 72.04 127.08 72.2 128.08 71.56C130.92 69.96 133.6 67.8 135.92 65.08C136.56 66.36 137.16 67.64 137.68 68.96C138.64 71.32 140.56 72.12 142.72 71C145.04 69.8 145.16 67.92 143.88 65.6C142.8 63.6 141.4 61.52 139.88 59.52C141.6 56.56 143 53.24 144 49.56C144.68 47.04 144.16 45.56 141.88 44.84C139.64 44.12 137.96 45.2 137.48 47.44C136.96 49.96 136.28 52.32 135.44 54.52C133.2 52.2 130.8 50.2 128.48 48.64C127.56 47.96 126.68 47.92 126.04 48.72C125.4 49.4 125.4 50.2 126.12 51.12C128.92 54.32 131.16 57.2 132.96 59.96C131.08 63.32 128.8 66.24 126 68.8ZM148.28 45.56C146.2 45.56 145.08 46.52 145.08 48.36V72.72H124.92V48.16C124.92 46.32 123.8 45.36 121.72 45.36C119.64 45.36 118.52 46.32 118.52 48.16V76.88C118.52 78.72 119.64 79.68 121.72 79.68C123.8 79.68 124.92 78.72 124.92 76.88V76.24H145.08V76.68C145.08 78.52 146.2 79.48 148.28 79.48C150.36 79.48 151.48 78.52 151.48 76.68V48.36C151.48 46.52 150.36 45.56 148.28 45.56ZM167.16 51.08C168.4 49.68 169.48 48.16 170.32 46.56C171.24 44.84 170.84 43.44 169.08 42.6C167.28 41.76 165.88 42.4 165.2 44.08C164.84 45.04 164.44 45.92 164 46.72C163.08 45.64 162 44.56 160.84 43.52C160.2 42.92 159.52 42.92 158.96 43.4C158.36 43.88 158.28 44.52 158.8 45.32C160 47.16 161 48.84 161.84 50.44C160.64 52.12 159.28 53.56 157.76 54.76C157.12 55.36 156.96 56 157.36 56.72C157.72 57.4 158.36 57.64 159.2 57.24C160.6 56.64 162.12 55.72 163.6 54.52C163.92 55.48 164.2 56.4 164.4 57.36C162.88 61.44 160.52 65.04 157.76 67.6C157.08 68.2 157.04 68.88 157.48 69.56C157.92 70.2 158.52 70.36 159.36 69.84C161.44 68.64 163.6 66.64 165.16 64.6V65.12C165.16 71.4 164.4 74.52 162.84 74.64C162.08 74.68 161.4 74.6 160.52 74.2C159.64 73.8 158.96 73.84 158.56 74.56C158.12 75.32 158.12 75.96 158.72 76.68C160.48 78.72 162.16 79.64 164.08 79.6C168.8 79.52 170.8 75.52 170.8 66.2C170.8 60.28 169.68 55.44 167.16 51.08ZM190.68 73.32C188.92 71.88 187.44 70.36 186.28 68.68C187.8 68.04 189.32 67.16 190.72 66.2C192.16 65.16 192.2 63.76 190.96 62.6C189.76 61.48 188.52 61.6 187.44 62.96C186.48 64.2 185.6 65.2 184.68 66.04C183.88 64.44 183.28 62.72 182.84 60.88H188.28C189.96 60.88 190.88 59.96 190.88 58.28V46.8C190.88 45.12 189.96 44.2 188.28 44.2H175C173.32 44.2 172.4 45.12 172.4 46.8V74.08C172.2 74.12 172.04 74.16 171.84 74.16C170 74.36 169.36 75.56 169.76 77.2C170.2 78.92 171.36 79.44 173.12 78.92C176.6 77.92 180.04 76.28 182.24 74.6C182.72 74.24 182.8 73.76 182.52 73.08C182.28 72.44 181.72 72.24 180.96 72.44C180.2 72.68 179.32 72.88 178.4 73.08V60.88H179.96C180.48 68.08 182.8 74.32 186.84 78.36C188.48 80 190.32 79.72 191.64 78.04C192.96 76.36 192.52 74.8 190.68 73.32ZM178.4 47.96C178.4 47.68 178.6 47.48 178.88 47.48H184.4C184.68 47.48 184.88 47.68 184.88 47.96V50.76H178.4V47.96ZM178.4 54.04H184.88V57.12C184.88 57.4 184.68 57.6 184.4 57.6H178.4V54.04ZM228.68 43.2H201.32C199.64 43.2 198.72 44.12 198.72 45.8V77.56C198.72 79.16 199.76 79.96 201.68 79.96C203.52 79.96 204.6 79.2 204.64 77.64H225.36C225.4 79.2 226.44 79.92 228.32 79.92C230.24 79.92 231.28 79.16 231.28 77.56V45.8C231.28 44.12 230.36 43.2 228.68 43.2ZM205.12 46.48H224.88C225.16 46.48 225.36 46.68 225.36 46.96V74.36H204.64V46.96C204.64 46.68 204.84 46.48 205.12 46.48ZM208.68 53.88H221.28C222.68 53.88 223.48 53.08 223.48 51.68V49.6C223.48 48.2 222.68 47.4 221.28 47.4H208.68C207.28 47.4 206.48 48.2 206.48 49.6V51.68C206.48 53.08 207.28 53.88 208.68 53.88ZM211.64 50.44C211.64 50.16 211.8 50.04 212.08 50.04H217.84C218.12 50.04 218.28 50.16 218.28 50.44V50.84C218.28 51.12 218.12 51.24 217.84 51.24H212.08C211.8 51.24 211.64 51.12 211.64 50.84V50.44ZM206.76 74.04C208.48 73.84 211.32 73 212.92 72.04C214.24 71.24 214.44 70.28 213.76 69.24L213.48 68.88H216.56C216.44 69 216.32 69.2 216.28 69.4C216.08 70.16 216.24 70.84 217.04 71.2C218.72 71.96 220.24 72.8 221.56 73.6C222.84 74.36 224.12 74.28 224.76 72.88C225.4 71.48 224.96 70.4 223.4 69.84C222.2 69.4 221.12 69.12 219.84 68.88H221.56C223.24 68.88 224.16 67.96 224.16 66.28V57.4C224.16 55.72 223.24 54.8 221.56 54.8H208.44C206.76 54.8 205.84 55.72 205.84 57.4V66.28C205.84 67.96 206.76 68.88 208.44 68.88H210.32C208.72 70 207.28 70.72 205.96 71.28C204.96 71.72 204.8 72.24 205 73.04C205.24 73.96 205.8 74.16 206.76 74.04ZM211.04 58C211.04 57.72 211.24 57.52 211.52 57.52H218.48C218.76 57.52 218.96 57.72 218.96 58V58.76H211.04V58ZM211.04 61.16H218.96V62.44H211.04V61.16ZM211.04 64.84H218.96V65.68C218.96 65.96 218.76 66.16 218.48 66.16H211.52C211.24 66.16 211.04 65.96 211.04 65.68V64.84ZM268.88 50.76H265.48V44.6C265.48 42.76 264.44 41.92 262.6 41.92C260.76 41.92 259.72 42.76 259.72 44.6V50.76H256.36C254.68 50.76 253.76 51.68 253.76 53.36V69.32C253.48 68.96 253.04 68.8 252.48 68.8H248.48V66.8H250.28C251.96 66.8 252.88 65.88 252.88 64.2V54.76C252.88 53.08 251.96 52.16 250.28 52.16H248.48V50.32H252.6C253.64 50.32 254.24 49.72 254.24 48.68C254.24 47.64 253.64 47.04 252.6 47.04H248.48V44.88C248.48 42.96 247.44 42.16 245.52 42.16C243.6 42.16 242.56 42.96 242.56 44.88V47.04H238.68C237.6 47.04 237.04 47.64 237.04 48.68C237.04 49.72 237.6 50.32 238.68 50.32H242.56V52.16H240.8C239.12 52.16 238.2 53.08 238.2 54.76V64.2C238.2 65.88 239.12 66.8 240.8 66.8H242.56V68.8H238.44C237.4 68.8 236.8 69.4 236.8 70.44C236.8 71.48 237.4 72.08 238.44 72.08H242.56V76.88C242.56 78.8 243.6 79.68 245.52 79.68C247.44 79.68 248.48 78.8 248.48 76.88V72.08H252.48C253.04 72.08 253.48 71.92 253.76 71.56V77.2C253.76 78.84 254.68 79.6 256.32 79.6C257.96 79.6 258.88 78.84 258.88 77.2V76.04H266.36V77.2C266.36 78.84 267.28 79.6 268.92 79.6C270.56 79.6 271.48 78.84 271.48 77.2V53.36C271.48 51.68 270.56 50.76 268.88 50.76ZM260.2 61.2H258.88V54.6C258.88 54.32 259.08 54.12 259.36 54.12H260.2V61.2ZM266.36 61.2H265V54.12H265.88C266.16 54.12 266.36 54.32 266.36 54.6V61.2ZM243.44 57.88H242.2V55.92C242.2 55.64 242.4 55.44 242.68 55.44H243.44V57.88ZM247.6 55.44H248.4C248.68 55.44 248.88 55.64 248.88 55.92V57.88H247.6V55.44ZM243.44 63.52H242.68C242.4 63.52 242.2 63.32 242.2 63.04V61H243.44V63.52ZM248.4 63.52H247.6V61H248.88V63.04C248.88 63.32 248.68 63.52 248.4 63.52ZM260.2 72.68H258.88V64.56H260.2V72.68ZM266.36 72.68H265V64.56H266.36V72.68ZM311.4 75.24C310.16 74.2 308.92 73.36 307.6 72.64C308.84 72.4 309.52 71.52 309.52 70.08V67.2C309.52 65.52 308.6 64.6 306.92 64.6H298.2V64.4C298.2 62.48 297.08 61.68 295 61.68C294.76 61.68 294.52 61.68 294.28 61.72C294.52 61.24 294.68 60.68 294.68 60.08V50.64C294.68 48.96 293.76 48.04 292.08 48.04H290.4C290.68 47.76 290.96 47.48 291.2 47.2C292 46.28 292.12 44.4 290.68 43.76C289.48 43.24 288.2 43.44 287.52 44.12H285.2C285.32 43.28 284.8 42.56 283.72 42.16C282.2 41.6 281.2 42.36 280.72 43.52C279.76 45.96 278.48 47.72 277.04 49.2C276.52 49.8 276.48 50.36 276.92 51C277.36 51.64 278 51.68 278.68 51.24L278.96 51.08V53.84C278.96 58.88 278.84 60.48 277.68 62.44C277.2 63.16 277.36 63.88 277.96 64.44C278.56 64.92 279.2 64.8 279.92 64.28C282.08 62.68 282.84 60.84 283.28 58.84H289.96V59.56C289.96 60.28 289.68 60.4 287.44 60.24C286.68 60.2 286.2 60.52 286.08 61.08C285.96 61.72 286.16 62.16 286.8 62.48C288.72 63.44 290.52 63.68 291.92 63.36C291.84 63.68 291.8 64 291.8 64.4V64.6H283.08C281.4 64.6 280.48 65.52 280.48 67.2V70.08C280.48 71.76 281.4 72.68 283.08 72.68H291.8V74.56C288.32 74.6 284.72 74.6 280.92 74.52C279 74.48 278.4 75.44 278.44 76.92C278.48 78.52 279.68 79.24 281.28 79.2C290.24 78.96 300.44 78.04 306.36 76.68C306.92 77.28 307.44 77.92 307.92 78.56C309.04 80 310.44 80.12 311.64 78.92C312.96 77.68 312.8 76.4 311.4 75.24ZM296.32 46.68H299.16C298.48 48 297.6 48.68 295.72 49.68C294.92 50.08 294.72 50.68 295 51.36C295.28 52.12 295.84 52.32 296.72 52.08L297.04 52C296.92 52.16 296.8 52.36 296.72 52.6C296.28 53.84 295.8 54.8 295.24 55.72C294.76 56.48 294.92 57.12 295.52 57.6C296.12 58.08 296.72 58.04 297.36 57.48C297.68 57.2 298 56.92 298.28 56.64H301.12V58.16H296.56C295.6 58.16 295.04 58.72 295.04 59.68C295.04 60.64 295.6 61.2 296.56 61.2H301.12V61.84C301.12 63.4 302.04 64.08 303.72 64.08C305.4 64.08 306.32 63.4 306.32 61.84V61.2H310.68C311.64 61.2 312.2 60.64 312.2 59.68C312.2 58.72 311.56 58.16 310.68 58.16H306.32V56.64H309.76C310.72 56.64 311.28 56.04 311.28 55.08C311.28 54.2 310.72 53.6 309.76 53.6H306.32V53.2C306.32 52.72 306.24 52.32 306.04 52C308.4 52.44 310.2 51.64 310.64 50.24C311 49.08 311.16 47.52 311.16 46.28C311.16 44.52 310.36 43.56 308.64 43.56H296.32C295.32 43.56 294.76 44.08 294.76 45.12C294.76 46.16 295.28 46.68 296.32 46.68ZM306.48 47.16L306.36 48.44C306.28 48.88 305.88 49.16 304.32 48.88C303.48 48.76 303 49 302.8 49.6C302.6 50.12 302.72 50.68 303.24 51.04C301.88 51.16 301.12 51.88 301.12 53.2V53.6H300.28C300.68 52.52 300 51.72 299.04 51.4C299 51.4 298.96 51.36 298.88 51.36C301.44 50.32 302.96 48.84 303.92 46.68H306C306.28 46.68 306.48 46.84 306.48 47.16ZM286.84 47.32C286.76 47.56 286.64 47.8 286.52 48.04H282.64C283 47.64 283.36 47.2 283.68 46.76H286.48C286.84 46.76 287 47 286.84 47.32ZM285 52.2H283.2V51.16C283.2 50.88 283.4 50.68 283.68 50.68H285V52.2ZM290.36 52.2H288.6V50.68H289.88C290.16 50.68 290.36 50.88 290.36 51.16V52.2ZM285 56.2H283.2V54.68H285V56.2ZM290.36 56.2H288.6V54.68H290.36V56.2ZM286.96 69.48C286.68 69.48 286.48 69.28 286.48 69V68.28C286.48 68 286.68 67.8 286.96 67.8H291.8V69.48H286.96ZM303.04 67.8C303.32 67.8 303.52 68 303.52 68.28V69C303.52 69.28 303.32 69.48 303.04 69.48H298.2V67.8H303.04ZM298.2 74.4V72.68H303.52C303.44 73.12 303.6 73.56 304 74.04C304.04 74.08 304.04 74.12 304.08 74.12C302.12 74.24 300.2 74.32 298.2 74.4ZM321.8 66.84C323.36 66.84 324.44 66 324.56 64.44L325.8 50.2C326.04 47.52 324.48 46.04 321.8 46.04C319.16 46.04 317.56 47.52 317.8 50.2L319 64.44C319.12 66 320.24 66.84 321.8 66.84ZM321.8 76.56C323.96 76.56 325.8 74.8 325.8 72.56C325.8 70.52 323.96 68.72 321.8 68.72C319.56 68.72 317.72 70.52 317.72 72.56C317.72 74.8 319.56 76.56 321.8 76.56ZM335.355 66.84C336.915 66.84 337.995 66 338.115 64.44L339.355 50.2C339.595 47.52 338.035 46.04 335.355 46.04C332.715 46.04 331.115 47.52 331.355 50.2L332.555 64.44C332.675 66 333.795 66.84 335.355 66.84ZM335.355 76.56C337.515 76.56 339.355 74.8 339.355 72.56C339.355 70.52 337.515 68.72 335.355 68.72C333.115 68.72 331.275 70.52 331.275 72.56C331.275 74.8 333.115 76.56 335.355 76.56Z" fill="black"/>
<defs>
<filter id="filter0_d" x="0" y="1.52588e-05" width="382" height="140" filterUnits="userSpaceOnUse" color-interpolation-filters="sRGB">
<feFlood flood-opacity="0" result="BackgroundImageFix"/>
<feColorMatrix in="SourceAlpha" type="matrix" values="0 0 0 0 0 0 0 0 0 0 0 0 0 0 0 0 0 0 127 0"/>
<feOffset dx="3" dy="9"/>
<feGaussianBlur stdDeviation="6.5"/>
<feColorMatrix type="matrix" values="0 0 0 0 0 0 0 0 0 0 0 0 0 0 0 0 0 0 0.25 0"/>
<feBlend mode="normal" in2="BackgroundImageFix" result="effect1_dropShadow"/>
<feBlend mode="normal" in="SourceGraphic" in2="effect1_dropShadow" result="shape"/>
</filter>
</defs>
</svg>
