<svg width="299" height="140" viewBox="0 0 299 140" fill="none" xmlns="http://www.w3.org/2000/svg">
<g filter="url(#filter0_d)">
<path d="M131.001 7.23371C75.8711 3.64676 31.4612 8.72828 16.1475 11.7174C6.13462 16.2011 16.1475 95.413 26.1603 108.366C36.1731 121.319 249.388 115.341 270.591 108.366C291.795 101.391 274.714 33.6377 270.591 24.6703C266.468 15.7029 199.912 11.7174 131.001 7.23371Z" fill="white"/>
<path d="M131.001 7.23371C75.8711 3.64676 31.4612 8.72828 16.1475 11.7174C6.13462 16.2011 16.1475 95.413 26.1603 108.366C36.1731 121.319 249.388 115.341 270.591 108.366C291.795 101.391 274.714 33.6377 270.591 24.6703C266.468 15.7029 199.912 11.7174 131.001 7.23371Z" stroke="black" stroke-width="4"/>
</g>
<path d="M70.6 53.4C69.12 52.84 67.8 52.28 66.6 51.6C67.52 51.16 68.52 50.52 69.44 49.84C70.92 48.72 70.92 47.36 69.6 46.32C68.32 45.32 66.96 45.72 66.24 46.76C65.28 48.24 64.64 49.12 63.92 49.84C63.24 49.28 62.56 48.64 61.96 48C62.84 47.48 63.8 46.84 64.64 46.16C66.08 45 65.96 43.68 64.6 42.68C63.32 41.72 61.96 42.16 61.28 43.24C60.72 44.16 60.28 44.84 59.88 45.4C59.28 44.56 58.76 43.68 58.2 42.68C57.76 41.88 57.12 41.64 56.36 41.88C55.52 42.16 55.28 42.84 55.52 43.6C56.8 47.64 58.88 51 61.64 53.8H57.52C55.84 53.8 54.92 54.76 54.96 56.48C55.08 59.4 54.72 61.48 53.2 62.92C52.56 63.52 52.4 64.12 52.84 64.76C53.16 65.24 53.6 65.44 54.12 65.32C54.08 65.44 54.08 65.52 54.08 65.64C54.08 66.6 54.64 67.16 55.6 67.16H55.88C56.48 69.28 57.6 71.32 59.04 73.12C57.48 74.52 55.6 75.72 53.36 76.72C52.4 77.16 52.08 77.72 52.32 78.52C52.6 79.32 53.24 79.68 54.2 79.48C56.96 78.84 59.6 77.72 61.88 76C63.68 77.52 65.68 78.64 67.8 79.28C69.32 79.76 70.84 79.36 71.36 77.6C71.88 75.88 71.16 74.52 69.44 74.08C67.92 73.68 66.56 73.2 65.32 72.68C66.48 71.2 67.44 69.48 68.2 67.52C68.88 65.76 68.16 64.16 66.16 64.16H56.2C58.48 62.44 59.4 60.08 59.4 57.4C59.4 57.08 59.64 56.92 59.92 56.92H61.6C61.88 56.92 62.08 57.12 62.08 57.4V59.64C62.08 62.52 62.72 63.64 66.16 63.76C67.52 63.8 68.84 63.64 69.96 63.24C71 62.88 71.4 62.2 71.12 61C70.84 59.88 70.04 59.48 69.24 59.76C68.52 60 68.04 60.08 67.48 60.08C66.6 60.08 66.52 59.64 66.52 58.44V57.72C67.12 58.12 67.72 58.48 68.36 58.84C70.04 59.76 72 59.44 72.76 57.6C73.56 55.68 72.76 54.2 70.6 53.4ZM53.56 68.76C53.68 66.8 52.64 66.04 51.04 66.04H45.68C45.8 65.28 45.88 64.52 46 63.8H50.92C52.6 63.8 53.52 62.88 53.52 61.2V56.56C53.52 54.88 52.6 54.04 50.92 54.04H50.56C52.2 52.28 53.68 50.2 54.88 47.72C55.8 45.88 55.6 43.96 54.04 43.08C52.48 42.2 50.72 42.48 49.52 43.48H41.16C40.12 43.48 39.52 44.08 39.52 45.12C39.52 46.16 40.12 46.76 41.16 46.76H48.76C49.12 46.76 49.28 47 49.12 47.32C48.64 48.32 48.12 49.24 47.48 50.16C46.08 49 44.68 48.12 43.12 47.36C42.28 46.96 41.64 47.08 41.16 47.68C40.68 48.28 40.6 49 41.28 49.68C42.48 50.88 43.72 52.12 44.76 53.36C42.8 55.24 40.4 56.84 37.68 58.2C36.8 58.64 36.48 59.36 36.8 60.16C37.12 61 37.76 61.28 38.68 61C41.8 60.08 44.76 58.72 47.4 56.8H47.88C48.16 56.8 48.36 57 48.36 57.28V60.12C48.36 60.4 48.16 60.6 47.88 60.6H45.64C45.28 60.16 44.68 59.92 43.84 59.84C42.24 59.72 41.16 60.44 41 61.92C40.76 64.08 40.44 66 39.96 68.36C39.72 69.88 40.4 71 42.08 71.2C43.6 71.44 44.68 70.88 45.08 69.24H47.6C47.92 69.24 48.08 69.4 48.08 69.76C48 70.96 47.84 72.56 47.6 73.76C47.24 75.52 46.52 75.72 42.6 74.72C41.68 74.48 41.12 74.76 40.88 75.48C40.64 76.2 40.76 76.84 41.36 77.28C46.32 80.96 51.8 80.52 52.84 75.12C53.12 73.68 53.4 71.4 53.56 68.76ZM62.6 67.84C62.32 68.72 61.92 69.52 61.4 70.32C60.28 69.4 59.32 68.36 58.56 67.16H62.12C62.56 67.16 62.72 67.44 62.6 67.84ZM112.36 68.64C112.2 67.8 111.68 67.44 110.92 67.44C110.2 67.44 109.76 67.92 109.8 68.92C109.88 73.16 109.76 73.52 108.56 73.52C107.64 73.52 107.4 73.32 107.4 72.6V66.12H108.04C109.72 66.12 110.64 65.2 110.64 63.52V46.16C110.64 44.48 109.72 43.56 108.04 43.56H94.68C93 43.56 92.08 44.48 92.08 46.16V63.52C92.08 65.2 93 66.12 94.68 66.12H94.92C94.44 71.08 92 74.32 86.96 76.6C86.04 77.04 85.68 77.6 85.96 78.44C86.2 79.2 86.8 79.6 87.76 79.44C95.24 78 99.84 73.04 100.52 66.12H101.72V73.4C101.72 77.52 102.24 78.48 107.96 78.48C113.2 78.48 114 77.08 112.36 68.64ZM91.72 66.32C91.36 65.6 90.68 65.36 89.8 65.68C89 65.96 88.2 66.2 87.44 66.44V58.44H89.64C90.76 58.44 91.32 57.84 91.32 56.76C91.32 55.68 90.76 55.08 89.64 55.08H87.44V47.4H89.84C90.92 47.4 91.48 46.8 91.48 45.76C91.48 44.72 90.92 44.12 89.84 44.12H78.76C77.68 44.12 77.12 44.72 77.12 45.76C77.12 46.8 77.68 47.4 78.76 47.4H81.28V55.08H79.08C78 55.08 77.4 55.68 77.4 56.76C77.4 57.84 78 58.44 79.08 58.44H81.28V68C80.52 68.16 79.76 68.28 79 68.4C76.76 68.76 76 70.12 76.56 72.12C77.12 74.08 78.64 74.76 80.72 73.92C84.52 72.44 88.56 70.4 91.32 68.12C91.92 67.6 92.08 67.04 91.72 66.32ZM97.92 47.4C97.92 47.12 98.12 46.92 98.4 46.92H104.32C104.6 46.92 104.8 47.12 104.8 47.4V49.84H97.92V47.4ZM97.92 53.12H104.8V56.2H97.92V53.12ZM97.92 59.48H104.8V62.28C104.8 62.56 104.6 62.76 104.32 62.76H98.4C98.12 62.76 97.92 62.56 97.92 62.28V59.48ZM144.88 63.2L144.92 63.16C145.64 67.4 146.96 69.28 149.16 69.92C151.8 70.68 154.44 68.88 153 59.96C152.84 59 152.32 58.56 151.56 58.56C150.8 58.56 150.24 59 150.2 60.04C150.12 63.16 150.2 64.2 149.72 64.08C148.88 63.88 148.96 57.84 148.96 51.12C148.96 49.36 148.04 48.44 146.36 48.44H142.96V47.6V44.4C142.96 42.68 141.88 41.88 140.28 41.88C138.64 41.88 137.6 42.68 137.6 44.4V47.6V48.44H136.64C135.6 48.44 135 49.04 135 50.08C135 51.12 135.6 51.72 136.64 51.72H137.56C137.56 52.32 137.52 52.92 137.52 53.48L137.24 53.32C136.52 52.92 135.88 52.96 135.48 53.52C135.04 54.12 135.08 54.72 135.6 55.36C136.16 56.04 136.72 56.72 137.28 57.36C136.96 60.64 136.36 63.04 135.28 64.92C135.28 64.88 135.28 64.8 135.24 64.72C135.04 64 134.48 63.6 133.6 63.76C132.28 64 130.92 64.2 129.52 64.36V62.84H133.36C134.28 62.84 134.84 62.28 134.84 61.36C134.84 60.44 134.28 59.8 133.36 59.8H129.52V58.4C129.76 58.44 130.08 58.48 130.4 58.48C131.88 58.52 133.44 58.48 134.48 58C135.44 57.56 135.68 56.64 135.36 55.72C135.08 54.96 134.48 54.68 133.8 54.76C133.52 54.8 133.16 54.88 132.76 54.88C132.2 54.88 132.16 54.56 132.16 54.16V53.24H133.68C134.68 53.24 135.2 52.72 135.2 51.72C135.2 50.76 134.68 50.24 133.68 50.24H129.68V48.36H132.84C133.76 48.36 134.32 47.8 134.32 46.88C134.32 45.96 133.76 45.4 132.84 45.4H129.68V44.08C129.68 42.56 128.64 41.72 126.68 41.72C124.72 41.72 123.6 42.56 123.6 44.08V45.4H120.24C119.32 45.4 118.76 45.96 118.76 46.88C118.76 47.8 119.32 48.36 120.24 48.36H123.6V50.24H119.2C118.2 50.24 117.68 50.76 117.68 51.72C117.68 52.68 118.2 53.24 119.2 53.24H120.84C120.52 55.08 119.72 55.92 117.76 56.88C116.88 57.32 116.56 57.92 116.8 58.72C117.04 59.48 117.76 59.84 118.64 59.64C122.6 58.76 124.88 56.32 125.44 53.24H127.52V55.16C127.52 55.56 127.52 55.92 127.56 56.24C127.24 56.16 126.88 56.12 126.48 56.12C124.52 56.12 123.44 57.04 123.44 58.36V59.8H119.56C118.64 59.8 118.08 60.44 118.08 61.36C118.08 62.28 118.64 62.84 119.56 62.84H123.44V64.88L119.68 65C117.84 65.04 117.04 66.04 117.24 67.64C117.44 69.24 118.6 69.92 120.28 69.76C120.92 69.68 121.52 69.64 122.12 69.56C122 69.68 121.84 69.84 121.76 70.04C121.12 71.28 119.44 73.32 117.84 74.76C116.52 75.92 116.32 77.52 117.8 78.92C119.32 80.36 121.08 80.04 122.16 78.44C123.52 76.44 124.28 73.8 124.72 71.56C124.96 70.36 124.8 69.76 123.92 69.36C127.88 68.8 131.52 68 134.24 66.48C133.64 67.24 132.96 67.92 132.12 68.56C131.32 69.2 131.16 69.84 131.6 70.6C132 71.32 132.72 71.52 133.64 71.08C137.44 69.28 139.84 66.56 141.24 62.36C141.32 62.44 141.4 62.56 141.44 62.64C142.44 64.16 143.8 64.32 144.88 63.2ZM142.44 56.96C142.68 55.36 142.8 53.64 142.88 51.72H143.84C144.12 51.72 144.32 51.88 144.32 52.24C144.32 54.84 144.36 57.08 144.48 59C143.84 58.28 143.16 57.6 142.44 56.96ZM139.08 69.84C138.44 69.12 137.84 68.96 137 69.28C136.2 69.6 136 70.32 136.28 71.24C136.8 73 137.28 75 137.56 77.04C137.84 79.08 139.28 79.84 141.12 79.24C142.96 78.64 143.52 77.36 142.56 75.4C141.6 73.44 140.36 71.28 139.08 69.84ZM147.4 69.76C146.72 69.2 146.04 68.96 145.28 69.44C144.52 69.92 144.4 70.64 144.72 71.52C145.32 73.2 146.04 75.36 146.56 77.2C147.16 79.36 148.68 80.04 150.48 79.24C152.32 78.4 152.8 76.88 151.64 75.04C150.48 73.16 148.96 71.04 147.4 69.76ZM130.32 70.28C129.8 69.56 129.12 69.2 128.36 69.48C127.56 69.76 127.2 70.44 127.4 71.4C127.8 73.32 128.12 75.32 128.24 77C128.4 79.08 129.72 79.88 131.56 79.44C133.48 79 134.12 77.68 133.32 75.76C132.56 73.92 131.44 71.84 130.32 70.28ZM189.68 52.12C189.28 52.24 188.88 52.24 188.32 52.24C187.48 52.24 187.44 51.92 187.44 51.44V49.16H191C192.04 49.16 192.6 48.6 192.6 47.56C192.6 46.52 192.04 45.96 191 45.96H187.44V44.64C187.44 43.2 186.52 42.4 184.84 42.4C183.16 42.4 182.2 43.2 182.2 44.64V45.96H181.08V44.24C181.08 42.8 180.16 42.04 178.48 42.04C176.8 42.04 175.88 42.8 175.88 44.24V45.96H174.08V44.24C174.08 42.8 173.16 42.04 171.48 42.04C169.8 42.04 168.88 42.8 168.88 44.24V45.96H167.72V44.64C167.72 43.2 166.8 42.4 165.08 42.4C163.36 42.4 162.44 43.2 162.44 44.64V45.96H158.96C157.92 45.96 157.36 46.52 157.36 47.56C157.36 48.6 157.92 49.16 158.96 49.16H162.4C162.2 51.72 161.36 53.08 158.76 54.64C158.04 55.08 157.8 55.64 158.04 56.32C158.32 57.04 158.84 57.32 159.68 57.16C164.44 56.28 167.08 53.4 167.64 49.16H168.88V53.76C168.88 55.44 169.8 56.36 171.48 56.36H178.48C180.16 56.36 181.08 55.44 181.08 53.76V49.16H182.2V52.52C182.2 55.76 183.12 56.52 187.2 56.52C189.32 56.52 190.4 56.44 191.52 55.8C192.52 55.24 192.88 54.16 192.24 52.96C191.64 51.88 190.88 51.76 189.68 52.12ZM175.88 52.68C175.88 52.96 175.68 53.16 175.4 53.16H174.56C174.28 53.16 174.08 52.96 174.08 52.68V49.16H175.88V52.68ZM189 57.52H160.96C159.28 57.52 158.36 58.44 158.36 60.12V63C158.36 64.72 159.44 65.64 161.4 65.64C161.8 65.64 162.16 65.6 162.48 65.52C162.44 65.76 162.4 66 162.4 66.28V74.28C162.4 75.96 163.44 76.84 165.36 76.84C167.28 76.84 168.32 75.96 168.32 74.28V67.36C168.32 67.08 168.52 66.88 168.8 66.88H171.8V76.84C171.8 78.68 172.92 79.64 175 79.64C177.08 79.64 178.2 78.68 178.2 76.84V66.88H181.2C181.48 66.88 181.68 67.08 181.68 67.36V71.72C181.68 72.64 181.56 72.96 180.12 72.88C179.16 72.8 178.68 73.16 178.52 73.96C178.36 74.84 178.64 75.44 179.68 75.88C184.28 77.8 187.56 76.24 187.56 72.44V66.28C187.56 66 187.52 65.76 187.48 65.52C187.8 65.6 188.16 65.64 188.56 65.64C190.52 65.64 191.6 64.72 191.6 63V60.12C191.6 58.44 190.68 57.52 189 57.52ZM165 63.68C164.76 63.68 164.56 63.68 164.36 63.72C164.4 63.52 164.44 63.28 164.44 63V61.2C164.44 60.92 164.64 60.72 164.92 60.72H171.8V63.68H165ZM178.2 63.68V60.72H185.04C185.32 60.72 185.52 60.92 185.52 61.2V63C185.52 63.28 185.56 63.52 185.6 63.72C185.4 63.68 185.2 63.68 184.96 63.68H178.2ZM199.8 57.76C200.52 57.44 201.24 57.08 201.96 56.68V66.76C201.96 68.44 202.88 69.36 204.56 69.36H225.88C227.56 69.36 228.48 68.44 228.48 66.76V55.32C228.48 53.64 227.56 52.72 225.88 52.72H220.28C220.96 52.08 221.64 51.28 222.28 50.24C223.52 48.28 223.24 46.12 221.32 45.16C219.96 44.48 218.36 44.72 216.84 45.84H212.48C213.04 44.24 212.68 43 211.04 42.28C208.88 41.36 207.28 42.32 206.56 44.16C204.68 48.8 201.8 52.48 198.28 55.2C197.56 55.84 197.44 56.52 197.84 57.24C198.24 57.96 198.92 58.2 199.8 57.76ZM216.4 49.92C216.12 50.76 215.68 51.64 215.08 52.72H207.4C208.48 51.68 209.52 50.56 210.4 49.36H216.04C216.36 49.36 216.52 49.56 216.4 49.92ZM208.28 59.24V56.56C208.28 56.28 208.48 56.08 208.76 56.08H212V59.24H208.28ZM222.16 56.56V59.24H218.24V56.08H221.68C221.96 56.08 222.16 56.28 222.16 56.56ZM208.28 65.52V62.56H212V66H208.76C208.48 66 208.28 65.8 208.28 65.52ZM221.68 66H218.24V62.56H222.16V65.52C222.16 65.8 221.96 66 221.68 66ZM205.16 69.84C204.44 69.4 203.64 69.68 203.12 70.44C202.16 71.76 200.4 73.32 198.76 74.6C197.4 75.68 197.04 77.12 198.48 78.56C199.88 79.96 201.48 79.8 202.84 78.24C204.2 76.68 205.28 74.08 205.8 72.04C206.08 70.96 205.92 70.28 205.16 69.84ZM232.32 74.64C230.64 72.76 228.96 71.28 227.52 70.2C226.72 69.56 226.12 69.6 225.52 70C224.8 70.52 224.6 71.28 225.04 72.04C225.84 73.52 226.76 75.24 227.52 77.48C228.12 79.24 229.92 79.88 231.68 78.8C233.36 77.76 233.56 76.04 232.32 74.64ZM211.6 70.52C211.08 69.88 210.48 69.56 209.68 69.88C208.92 70.2 208.64 70.72 208.76 71.6C208.96 72.96 209.28 74.76 209.48 77.08C209.64 78.92 210.88 79.76 212.76 79.32C214.72 78.88 215.4 77.36 214.8 75.84C213.88 73.52 212.68 71.84 211.6 70.52ZM219.44 70.36C218.84 69.8 218.2 69.6 217.48 69.96C216.76 70.32 216.56 71.08 216.84 71.88C217.32 73.24 217.8 74.96 218.16 76.84C218.56 78.92 219.88 79.6 221.76 78.92C223.64 78.24 224.28 76.64 223.24 74.96C222.08 73.08 220.68 71.52 219.44 70.36ZM241.8 66.84C243.36 66.84 244.44 66 244.56 64.44L245.8 50.2C246.04 47.52 244.48 46.04 241.8 46.04C239.16 46.04 237.56 47.52 237.8 50.2L239 64.44C239.12 66 240.24 66.84 241.8 66.84ZM241.8 76.56C243.96 76.56 245.8 74.8 245.8 72.56C245.8 70.52 243.96 68.72 241.8 68.72C239.56 68.72 237.72 70.52 237.72 72.56C237.72 74.8 239.56 76.56 241.8 76.56ZM255.355 66.84C256.915 66.84 257.995 66 258.115 64.44L259.355 50.2C259.595 47.52 258.035 46.04 255.355 46.04C252.715 46.04 251.115 47.52 251.355 50.2L252.555 64.44C252.675 66 253.795 66.84 255.355 66.84ZM255.355 76.56C257.515 76.56 259.355 74.8 259.355 72.56C259.355 70.52 257.515 68.72 255.355 68.72C253.115 68.72 251.275 70.52 251.275 72.56C251.275 74.8 253.115 76.56 255.355 76.56Z" fill="black"/>
<defs>
<filter id="filter0_d" x="0" y="3.05176e-05" width="299" height="140" filterUnits="userSpaceOnUse" color-interpolation-filters="sRGB">
<feFlood flood-opacity="0" result="BackgroundImageFix"/>
<feColorMatrix in="SourceAlpha" type="matrix" values="0 0 0 0 0 0 0 0 0 0 0 0 0 0 0 0 0 0 127 0"/>
<feOffset dx="3" dy="9"/>
<feGaussianBlur stdDeviation="6.5"/>
<feColorMatrix type="matrix" values="0 0 0 0 0 0 0 0 0 0 0 0 0 0 0 0 0 0 0.25 0"/>
<feBlend mode="normal" in2="BackgroundImageFix" result="effect1_dropShadow"/>
<feBlend mode="normal" in="SourceGraphic" in2="effect1_dropShadow" result="shape"/>
</filter>
</defs>
</svg>
