<?xml version="1.0" encoding="utf-8"?>
<!-- Generator: Adobe Illustrator 23.0.4, SVG Export Plug-In . SVG Version: 6.00 Build 0)  -->
<svg version="1.1" id="圖層_1" xmlns="http://www.w3.org/2000/svg" xmlns:xlink="http://www.w3.org/1999/xlink" x="0px" y="0px"
	 viewBox="0 0 256 256" style="enable-background:new 0 0 256 256;" xml:space="preserve">
<style type="text/css">
	.st0{fill:#FFFFFF;stroke:#000000;stroke-width:2;}
	.st1{stroke:#000000;stroke-width:2;stroke-linecap:round;stroke-linejoin:round;}
	.st2{fill:none;stroke:#000000;stroke-width:2;stroke-linecap:round;stroke-linejoin:round;}
	.st3{fill:#FF7C7C;fill-opacity:0.19;}
	.st4{fill:none;stroke:#000000;}
</style>
<path class="st0" d="M97.5,117.1c1.3,6.3,5.4,19.4,12,20.7 M95.9,98.1c0-19.1,13.6-26.7,21.8-28.3c8.2-1.6,26.7,3.3,33.2,14.1
	c5.2,8.7,7.3,19.6,7.6,23.9c3.3-5.8,10.1-19.5,11.4-27.7c1.6-10.3-0.5-25.6-6-29.4c-5.4-3.8-10.9-3.3-15.8,2.7s-8.2,1.6-7.1-2.7
	c1.1-4.4,7.6-13.1,15.2-13.1c7.6,0,25,7.1,28.3,19.6s1.1,46.2-2.2,50.6c5.1-2.9,15.3-9.8,15.8-14.1c0.5-5.4-3.8-23.4,3.8-29.9
	s16.9-13.1,27.2-6.5c10.3,6.5,6.5,17.4,0,20.1c-5.2,2.2-9.4-1.3-10.9-3.3l7.1-7.1c-3.6-0.5-11.1-0.8-12,2.7
	c-1.1,4.4,5.4,26.7,2.7,33.7c-2.7,7.1-25,29.4-29.4,30.5s12,3.8,18,0s12-4.4,16.3,0s2.2,16.3-2.7,21.2c-3.9,3.9-7.1,1.6-8.2,0
	c1.8-2,4.4-6.6,0-9.2c-5.4-3.3-27.7,10.3-27.7,16.3s3.8,20.7,13.1,18s5.4-5.4,2.7-10.3s1.1-10.9,6.5-7.6s12,15.8,8.7,21.2
	s-6,12.5-22.3,9.8s-29.4-17.4-34.8-17.4S141,186.2,141,193.3s-8.2,20.7-14.7,25s-26.7,0-27.2-10.9c-0.4-8.7,0.9-13.8,1.6-15.2
	c0.5,5.1,3.2,15.2,9.2,15.2c7.6,0,12.5,1.1,11.4-6.5c-1.1-7.6-6-15.8-15.8-14.7c-9.8,1.1-19,1.1-20.1,6s-1.6,7.1,1.1,7.1
	c2.2,0,2.4-1.8,2.2-2.7c1.8,2.2,4.6,7.4,1.1,10.9c-4.4,4.4-16.9-1.1-16.9-8.2s3.8-15.8,9.8-19c4.8-2.6,12.9-6.9,16.3-8.7
	c-6.5,1.3-21.9,2.7-31-1.6s-21.9-20.7-27.2-28.3c-4-1.1-11.4-2.2-9.2,2.2c3.4,0.5,10.3,2.1,10.3,3.8c0,2.2,1.6,9.8-7.1,7.6
	c-8.7-2.2-13.6-6.5-13.6-11.4c0-4.9,0-16.9,10.3-18.5c10.3-1.6,15.2,1.1,22.8,8.7c7.6,7.6,20.7,18,32.1,10.9
	c-12.5-9.2-35.9-31-38.6-45.7c-3.3-16.9-2.2-37.5,2.2-43c4.4-5.4,15.2-20.7,32.6-19.6c13.9,0.9,18.1,14.9,18.5,21.8
	c-0.5,4.5-3.6,13.8-11.4,14.7c-9.8,1.1-16.9-4.9-16.3-10.9c0.5-6,16.3-1.1,16.3-1.6s4.4-3.8,0-8.7c-4.4-4.9-13.1,0-16.3,3.3
	c-3.3,3.3-14.7,10.3-12.5,16.3c2.2,6,2.7,10.3,6.5,13.6c3.8,3.3,14.7,23.4,23.4,26.1C98.7,113.6,95.9,110.1,95.9,98.1L95.9,98.1z"/>
<path class="st1" d="M127.3,147.1c0.2,0.5,0,1.2-0.4,1.8c-0.5,0.6-1.3,1.2-2.3,1.5c-1,0.3-2,0.3-2.7,0c-0.7-0.3-1.2-0.7-1.3-1.3
	c-0.2-0.5,0-1.2,0.4-1.8c0.5-0.6,1.3-1.2,2.3-1.5c1-0.3,2-0.3,2.7,0C126.7,146.1,127.2,146.6,127.3,147.1z"/>
<path class="st1" d="M158.5,137.8c0.2,0.5,0,1.2-0.4,1.8c-0.5,0.6-1.3,1.2-2.3,1.5s-2,0.3-2.7,0c-0.7-0.3-1.2-0.7-1.3-1.3
	c-0.2-0.5,0-1.2,0.4-1.8s1.3-1.2,2.3-1.5c1-0.3,2-0.3,2.7,0C157.9,136.9,158.4,137.3,158.5,137.8z"/>
<path class="st2" d="M134.7,144.9c0,1.6,1.2,4.4,6.6,2.7c5.4-1.7,5-4.7,4.2-6"/>
<circle class="st3" cx="114" cy="160.1" r="12.9"/>
<circle class="st3" cx="171.2" cy="144" r="12.9"/>
<g>
	<circle class="st4" cx="54.5" cy="103.5" r="3"/>
	<circle class="st4" cx="66.5" cy="118.5" r="3"/>
	<circle class="st4" cx="190.5" cy="122.5" r="3"/>
	<circle class="st4" cx="203.5" cy="111.5" r="3"/>
	<circle class="st4" cx="69.5" cy="165.5" r="3"/>
	<circle class="st4" cx="85.5" cy="168.5" r="3"/>
	<circle class="st4" cx="133.5" cy="193.5" r="3"/>
	<circle class="st4" cx="130.5" cy="205.5" r="3"/>
	<circle class="st4" cx="81.5" cy="130.5" r="3"/>
</g>
</svg>
