<svg width="256" height="256" viewBox="0 0 256 256" fill="none" xmlns="http://www.w3.org/2000/svg">
<path d="M51.8583 102.936C60.0005 94.3871 79.7046 76.6779 93.3834 74.2352C110.482 71.1819 127.581 68.1286 148.343 74.2352C169.106 80.3419 161.167 86.4485 169.106 86.4485C177.044 86.4485 188.036 82.1739 187.426 74.2352C186.815 66.2965 176.434 51.0299 174.602 44.9233C172.77 38.8166 173.381 27.214 182.54 22.3287C191.7 17.4434 194.143 16.222 202.082 19.886C208.433 22.8172 209.613 25.5856 209.41 26.6034L242.386 41.2593L214.295 35.1527C209.206 35.1527 198.662 35.397 197.196 36.374C195.364 37.5954 187.426 41.2593 189.868 51.03C192.311 60.8006 199.639 68.1286 200.25 75.4566C200.86 82.7845 194.754 96.8298 185.594 101.715C176.434 106.6 127.581 131.027 111.703 137.134C99.0016 142.019 64.0716 135.912 48.1943 132.248V148.736C45.9941 145.736 41.8679 139.316 42.652 137.24C41.2179 140.538 38.6784 147.286 39.645 148.736C40.622 150.202 37.6094 146.09 35.981 143.851C32.1134 148.329 24.3784 158.507 24.3784 163.392C24.3784 169.499 15.829 160.339 17.661 146.294C19.493 132.248 20.1036 123.088 28.0423 116.982C35.981 110.875 42.6983 101.104 51.8583 102.936Z" fill="white" stroke="black" stroke-width="2.44266"/>
<path d="M68.3462 116.371C80.763 121.053 108.039 129.439 117.81 125.531C130.023 120.646 139.794 116.982 145.29 106.6" stroke="black" stroke-width="2.44266"/>
<path d="M112.314 137.134L113.535 184.766L135.519 243.389" stroke="black" stroke-width="2.44266"/>
<path d="M103.765 138.966C103.765 140.431 98.8794 172.552 96.4368 188.43L95.2155 244" stroke="black" stroke-width="2.44266"/>
<ellipse cx="199.639" cy="25.9927" rx="3.66399" ry="2.44266" fill="black"/>
<circle cx="194.798" cy="29.7011" r="4.90464" transform="rotate(0.29411 194.798 29.7011)" fill="#FF7C7C" fill-opacity="0.19"/>
<path d="M35.5 139C33.6666 133.5 31.7 121.8 38.5 119" stroke="black"/>
<path d="M41.5 136C39.6666 130.5 37.7 118.8 44.5 116" stroke="black"/>
</svg>
