<svg width="256" height="256" viewBox="0 0 256 256" fill="none" xmlns="http://www.w3.org/2000/svg">
<g clip-path="url(#clip0)">
<path d="M73.5 93.3104V108.51C81.7333 103.444 100.733 92.2971 110.867 88.2437C121 84.1904 168.289 83.5993 190.667 83.8104L203.967 67.3437C205.656 66.7104 205.36 62.9104 190.667 52.7771C172.3 40.1104 125.433 57.2104 102.633 61.0104C84.3933 64.0504 75.6111 83.8104 73.5 93.3104Z" fill="white" stroke="black" stroke-width="2.53334"/>
<path d="M162.054 198.609C165.776 197.92 177.705 185.123 183.204 178.811H191.664C193.779 178.811 196.74 180.963 191.664 189.57C185.319 200.33 157.401 199.469 162.054 198.609Z" fill="white" stroke="black" stroke-width="2.53334"/>
<path d="M27.1612 101.367C35.6464 99.341 47.8281 105.801 52.8583 109.285C59.0096 116.014 71.0611 130.511 70.057 134.669C69.0529 138.827 40.0555 155.005 25.6823 162.574L38.1197 128.53L17.2125 109.773C16.9932 107.815 18.676 103.393 27.1612 101.367Z" fill="white" stroke="black" stroke-width="2.53334" stroke-linecap="round" stroke-linejoin="round"/>
<path d="M51.4951 120.326L44.8702 119.466M52.2259 124.835L45.7148 126.08M52.8648 130.648L46.5703 134.399" stroke="black" stroke-width="1.26667" stroke-linecap="round" stroke-linejoin="round"/>
<path d="M59.5666 133.473V117.365L108.33 79.6502C108.416 79.6149 108.539 79.5653 108.697 79.5024C109.043 79.3641 109.557 79.1619 110.223 78.9085C111.554 78.4016 113.49 77.6901 115.899 76.8751C120.719 75.2443 127.426 73.2026 134.975 71.5563C150.156 68.2454 168.415 66.6096 181.654 72.7754C189.567 76.4608 195.744 79.9955 201.243 84.614C206.738 89.2296 211.606 94.9705 216.842 103.12C218.123 105.115 219.383 106.955 220.584 108.711C226.046 116.691 230.302 122.91 229.908 133.827C229.539 144.066 225.494 149.588 220.177 156.846C219.119 158.292 218.009 159.806 216.869 161.44C211.558 169.048 206.616 174.209 201.11 178.28C195.593 182.358 189.458 185.381 181.696 188.663C153.172 200.725 132.785 190.502 105.229 176.684C103.216 175.675 101.164 174.646 99.069 173.606C90.2559 169.23 80.3497 159.198 72.5647 150.106C68.6941 145.585 65.3854 141.343 63.0443 138.23C61.8741 136.674 60.9465 135.402 60.3123 134.52C59.9952 134.078 59.7515 133.735 59.5875 133.502C59.5804 133.492 59.5734 133.482 59.5666 133.473Z" fill="white" stroke="black" stroke-width="2.53334"/>
<path d="M107.7 207.31C113.273 206.297 131.133 187.466 139.367 178.177H152.033C155.2 178.177 159.633 181.344 152.033 194.01C142.533 209.844 100.733 208.577 107.7 207.31Z" fill="white" stroke="black" stroke-width="2.53334"/>
<path d="M177.469 117.034C177.492 117.579 177.222 118.162 176.612 118.659C176.002 119.156 175.098 119.515 174.042 119.559C172.986 119.604 172.056 119.322 171.406 118.878C170.756 118.435 170.438 117.876 170.415 117.331C170.392 116.787 170.662 116.203 171.272 115.707C171.882 115.21 172.786 114.851 173.842 114.807C174.898 114.762 175.829 115.044 176.479 115.488C177.128 115.931 177.446 116.49 177.469 117.034Z" fill="black" stroke="black" stroke-width="2.0042" stroke-linecap="round" stroke-linejoin="round"/>
<path d="M210.044 115.662C210.067 116.207 209.797 116.79 209.187 117.287C208.577 117.783 207.673 118.143 206.617 118.187C205.561 118.232 204.631 117.95 203.981 117.506C203.331 117.063 203.013 116.504 202.99 115.959C202.967 115.415 203.237 114.831 203.847 114.335C204.457 113.838 205.361 113.479 206.417 113.435C207.473 113.39 208.404 113.672 209.054 114.116C209.703 114.559 210.021 115.118 210.044 115.662Z" fill="black" stroke="black" stroke-width="2.0042" stroke-linecap="round" stroke-linejoin="round"/>
<path d="M185.104 116.727C184.671 118.297 185.217 121.349 190.867 121.003C196.517 120.658 196.898 117.632 196.382 116.163" stroke="black" stroke-width="2.0042" stroke-linecap="round" stroke-linejoin="round"/>
<circle cx="161.384" cy="126.408" r="12.9349" transform="rotate(-2.41183 161.384 126.408)" fill="#FF7C7C" fill-opacity="0.19"/>
<circle cx="220.844" cy="124.77" r="12.9349" transform="rotate(-2.41183 220.844 124.77)" fill="#FF7C7C" fill-opacity="0.19"/>
<path d="M83.7641 145.904C84.1989 143.916 82.3327 117.854 81.3452 105.071C77.643 106.76 77.6118 114.044 76.1922 121.961C74.7727 129.877 83.2205 148.389 83.7641 145.904Z" fill="#DCDCDC"/>
<path d="M107.368 156.637C108.347 153.464 107.872 112.675 107.512 92.6771C100.815 95.7333 99.9752 107.192 96.624 119.796C93.2728 132.4 106.143 160.603 107.368 156.637Z" fill="#DCDCDC"/>
<path d="M135.944 163.156C136.937 159.031 133.858 105.207 132.194 78.8108C124.262 82.4305 123.947 97.4907 120.658 113.908C117.369 130.326 134.704 168.312 135.944 163.156Z" fill="#DCDCDC"/>
</g>
<defs>
<clipPath id="clip0">
<rect width="256" height="256" fill="white"/>
</clipPath>
</defs>
</svg>
