<svg width="256" height="256" viewBox="0 0 256 256" fill="none" xmlns="http://www.w3.org/2000/svg">
<path d="M16.7658 93.7816C11.2697 103.928 10.7764 120.381 11.2168 127.34L13.8592 151.649L9.89563 156.67L16.5015 157.462C17.8227 161.954 25.7498 177.544 33.6769 187.057C40.0185 194.667 53.2303 204.673 59.0435 208.724L57.9866 218.501L66.9706 214.009C69.8772 215.33 83.6175 220.879 93.13 222.2C100.74 223.257 114.621 222.288 120.61 221.672L124.838 228.806L126.688 220.351C131.973 219.558 150.733 213.48 156.547 209.517C161.197 206.346 170.463 198.331 174.515 194.72L182.442 196.834L178.742 188.906C182.442 185.207 192.747 168.56 195.653 160.105C197.979 153.34 200.85 137.204 201.995 129.982L213.357 124.169L201.995 121.526C201.643 123.112 200.938 125.173 200.938 120.734C200.938 115.185 195.125 93.7815 191.69 85.326C188.942 78.5616 177.862 65.0679 172.665 59.1666L174.25 49.9184L166.852 54.4104C162.36 50.9753 149.412 44.6337 143.863 42.2555C139.424 40.353 120.699 35.6496 111.891 33.5357L108.456 27.1941L105.285 34.0642C92.6015 33.8 80.1824 38.0278 67.4991 42.784C57.3524 46.589 43.1894 57.0528 37.3762 61.809L31.563 59.9594L34.2053 67.358C29.5548 70.3174 23.4597 81.8029 20.9935 87.1757L11.7453 85.8545L16.7658 93.7816Z" fill="white"/>
<path d="M53.4946 72.6427L52.9661 65.5083L57.7223 70.2645M124.574 58.1097L131.444 48.333L132.765 59.6951M45.8317 160.105C44.7748 160.95 42.749 168.736 41.8682 172.524L50.0595 166.182M107.663 196.041L113.476 208.196L116.383 195.777M162.888 176.752L170.815 182.565L167.909 170.938M177.157 123.376L187.991 118.62L173.458 116.77M11.2168 127.34C10.7764 120.381 11.2697 103.928 16.7658 93.7816L11.7453 85.8545L20.9935 87.1757C23.4597 81.8029 29.5548 70.3174 34.2053 67.358L31.563 59.9594L37.3762 61.809C43.1894 57.0528 57.3524 46.589 67.4991 42.784C80.1824 38.0278 92.6015 33.8 105.285 34.0642L108.456 27.1941L111.891 33.5357C120.699 35.6496 139.424 40.353 143.863 42.2555C149.412 44.6337 162.36 50.9753 166.852 54.4104L174.25 49.9184L172.665 59.1666C177.862 65.0679 188.942 78.5616 191.69 85.326C195.125 93.7815 200.938 115.185 200.938 120.734C200.938 125.173 201.643 123.112 201.995 121.526L213.357 124.169L201.995 129.982C200.85 137.204 197.979 153.34 195.653 160.105C192.747 168.56 182.442 185.207 178.742 188.906L182.442 196.834L174.515 194.72C170.463 198.331 161.197 206.346 156.547 209.517C150.733 213.48 131.973 219.558 126.688 220.351L124.838 228.806L120.61 221.672C114.621 222.288 100.74 223.257 93.1299 222.2C83.6175 220.879 69.8772 215.33 66.9706 214.009L57.9866 218.501L59.0435 208.724C53.2303 204.673 40.0185 194.667 33.6769 187.057C25.7498 177.544 17.8227 161.954 16.5015 157.462L9.89563 156.67L13.8592 151.649L11.2168 127.34Z" stroke="black" stroke-width="2" stroke-linecap="round" stroke-linejoin="round"/>
<path d="M145.823 109.713C147.009 108.852 157.733 94.6546 162.334 97.8905C166.935 101.126 168.117 119.194 164.233 119.688C159.772 120.584 150.065 122.157 146.927 121.285" stroke="black" stroke-width="2" stroke-linecap="round" stroke-linejoin="round"/>
<path d="M149.476 113.337L153.816 110.818M149.902 117.188L154.688 116.54" stroke="black" stroke-linecap="round" stroke-linejoin="round"/>
<path d="M30.0056 108.508C29.0164 107.698 20.2689 94.022 16.2328 97.4059C12.1968 100.79 10.6363 118.756 13.9458 119.099C17.737 119.819 25.9974 121.012 28.7091 120.028" stroke="black" stroke-width="2" stroke-linecap="round" stroke-linejoin="round"/>
<path d="M19.8745 107.662L27.6386 112.445M19.1643 114.901L25.1375 116.795" stroke="black" stroke-linecap="round" stroke-linejoin="round"/>
</svg>
