<svg width="107" height="107" viewBox="0 0 107 107" fill="none" xmlns="http://www.w3.org/2000/svg">
<circle cx="53.4901" cy="53.4315" r="51.6407" fill="white" stroke="#515151" stroke-width="3"/>
<path d="M57.3198 50.9554C59.4352 53.0708 59.4352 56.5006 57.3198 58.616C55.2043 60.7315 51.7745 60.7315 49.6591 58.616C47.5436 56.5006 47.5436 53.0708 49.6591 50.9554C51.7745 48.8399 55.2043 48.8399 57.3198 50.9554" fill="#515151"/>
<path d="M69.7402 39.8892H65.9975L63.2877 34.4723H43.6897L40.9825 39.8919L37.2452 39.8985C34.2656 39.9039 31.8401 42.332 31.8375 45.3128L31.823 66.9725C31.823 69.96 34.2524 72.3908 37.2399 72.3908H69.7402C72.7277 72.3908 75.1571 69.9614 75.1571 66.9738V45.3061C75.157 42.3186 72.7276 39.8892 69.7402 39.8892V39.8892ZM53.4893 65.6196C47.5156 65.6196 42.6555 60.7594 42.6555 54.7857C42.6555 48.812 47.5156 43.9518 53.4893 43.9518C59.4631 43.9518 64.3232 48.812 64.3232 54.7857C64.3232 60.7594 59.4631 65.6196 53.4893 65.6196V65.6196Z" fill="#515151"/>
</svg>
