<svg width="299" height="140" viewBox="0 0 299 140" fill="none" xmlns="http://www.w3.org/2000/svg">
<g filter="url(#filter0_d)">
<path d="M131.001 7.23371C75.8711 3.64676 31.4612 8.72828 16.1475 11.7174C6.13462 16.2011 16.1475 95.413 26.1603 108.366C36.1731 121.319 249.388 115.341 270.591 108.366C291.795 101.391 274.714 33.6377 270.591 24.6703C266.468 15.7029 199.912 11.7174 131.001 7.23371Z" fill="white"/>
<path d="M131.001 7.23371C75.8711 3.64676 31.4612 8.72828 16.1475 11.7174C6.13462 16.2011 16.1475 95.413 26.1603 108.366C36.1731 121.319 249.388 115.341 270.591 108.366C291.795 101.391 274.714 33.6377 270.591 24.6703C266.468 15.7029 199.912 11.7174 131.001 7.23371Z" stroke="black" stroke-width="4"/>
</g>
<path d="M70.6 53.4C69.12 52.84 67.8 52.28 66.6 51.6C67.52 51.16 68.52 50.52 69.44 49.84C70.92 48.72 70.92 47.36 69.6 46.32C68.32 45.32 66.96 45.72 66.24 46.76C65.28 48.24 64.64 49.12 63.92 49.84C63.24 49.28 62.56 48.64 61.96 48C62.84 47.48 63.8 46.84 64.64 46.16C66.08 45 65.96 43.68 64.6 42.68C63.32 41.72 61.96 42.16 61.28 43.24C60.72 44.16 60.28 44.84 59.88 45.4C59.28 44.56 58.76 43.68 58.2 42.68C57.76 41.88 57.12 41.64 56.36 41.88C55.52 42.16 55.28 42.84 55.52 43.6C56.8 47.64 58.88 51 61.64 53.8H57.52C55.84 53.8 54.92 54.76 54.96 56.48C55.08 59.4 54.72 61.48 53.2 62.92C52.56 63.52 52.4 64.12 52.84 64.76C53.16 65.24 53.6 65.44 54.12 65.32C54.08 65.44 54.08 65.52 54.08 65.64C54.08 66.6 54.64 67.16 55.6 67.16H55.88C56.48 69.28 57.6 71.32 59.04 73.12C57.48 74.52 55.6 75.72 53.36 76.72C52.4 77.16 52.08 77.72 52.32 78.52C52.6 79.32 53.24 79.68 54.2 79.48C56.96 78.84 59.6 77.72 61.88 76C63.68 77.52 65.68 78.64 67.8 79.28C69.32 79.76 70.84 79.36 71.36 77.6C71.88 75.88 71.16 74.52 69.44 74.08C67.92 73.68 66.56 73.2 65.32 72.68C66.48 71.2 67.44 69.48 68.2 67.52C68.88 65.76 68.16 64.16 66.16 64.16H56.2C58.48 62.44 59.4 60.08 59.4 57.4C59.4 57.08 59.64 56.92 59.92 56.92H61.6C61.88 56.92 62.08 57.12 62.08 57.4V59.64C62.08 62.52 62.72 63.64 66.16 63.76C67.52 63.8 68.84 63.64 69.96 63.24C71 62.88 71.4 62.2 71.12 61C70.84 59.88 70.04 59.48 69.24 59.76C68.52 60 68.04 60.08 67.48 60.08C66.6 60.08 66.52 59.64 66.52 58.44V57.72C67.12 58.12 67.72 58.48 68.36 58.84C70.04 59.76 72 59.44 72.76 57.6C73.56 55.68 72.76 54.2 70.6 53.4ZM53.56 68.76C53.68 66.8 52.64 66.04 51.04 66.04H45.68C45.8 65.28 45.88 64.52 46 63.8H50.92C52.6 63.8 53.52 62.88 53.52 61.2V56.56C53.52 54.88 52.6 54.04 50.92 54.04H50.56C52.2 52.28 53.68 50.2 54.88 47.72C55.8 45.88 55.6 43.96 54.04 43.08C52.48 42.2 50.72 42.48 49.52 43.48H41.16C40.12 43.48 39.52 44.08 39.52 45.12C39.52 46.16 40.12 46.76 41.16 46.76H48.76C49.12 46.76 49.28 47 49.12 47.32C48.64 48.32 48.12 49.24 47.48 50.16C46.08 49 44.68 48.12 43.12 47.36C42.28 46.96 41.64 47.08 41.16 47.68C40.68 48.28 40.6 49 41.28 49.68C42.48 50.88 43.72 52.12 44.76 53.36C42.8 55.24 40.4 56.84 37.68 58.2C36.8 58.64 36.48 59.36 36.8 60.16C37.12 61 37.76 61.28 38.68 61C41.8 60.08 44.76 58.72 47.4 56.8H47.88C48.16 56.8 48.36 57 48.36 57.28V60.12C48.36 60.4 48.16 60.6 47.88 60.6H45.64C45.28 60.16 44.68 59.92 43.84 59.84C42.24 59.72 41.16 60.44 41 61.92C40.76 64.08 40.44 66 39.96 68.36C39.72 69.88 40.4 71 42.08 71.2C43.6 71.44 44.68 70.88 45.08 69.24H47.6C47.92 69.24 48.08 69.4 48.08 69.76C48 70.96 47.84 72.56 47.6 73.76C47.24 75.52 46.52 75.72 42.6 74.72C41.68 74.48 41.12 74.76 40.88 75.48C40.64 76.2 40.76 76.84 41.36 77.28C46.32 80.96 51.8 80.52 52.84 75.12C53.12 73.68 53.4 71.4 53.56 68.76ZM62.6 67.84C62.32 68.72 61.92 69.52 61.4 70.32C60.28 69.4 59.32 68.36 58.56 67.16H62.12C62.56 67.16 62.72 67.44 62.6 67.84ZM112.36 68.64C112.2 67.8 111.68 67.44 110.92 67.44C110.2 67.44 109.76 67.92 109.8 68.92C109.88 73.16 109.76 73.52 108.56 73.52C107.64 73.52 107.4 73.32 107.4 72.6V66.12H108.04C109.72 66.12 110.64 65.2 110.64 63.52V46.16C110.64 44.48 109.72 43.56 108.04 43.56H94.68C93 43.56 92.08 44.48 92.08 46.16V63.52C92.08 65.2 93 66.12 94.68 66.12H94.92C94.44 71.08 92 74.32 86.96 76.6C86.04 77.04 85.68 77.6 85.96 78.44C86.2 79.2 86.8 79.6 87.76 79.44C95.24 78 99.84 73.04 100.52 66.12H101.72V73.4C101.72 77.52 102.24 78.48 107.96 78.48C113.2 78.48 114 77.08 112.36 68.64ZM91.72 66.32C91.36 65.6 90.68 65.36 89.8 65.68C89 65.96 88.2 66.2 87.44 66.44V58.44H89.64C90.76 58.44 91.32 57.84 91.32 56.76C91.32 55.68 90.76 55.08 89.64 55.08H87.44V47.4H89.84C90.92 47.4 91.48 46.8 91.48 45.76C91.48 44.72 90.92 44.12 89.84 44.12H78.76C77.68 44.12 77.12 44.72 77.12 45.76C77.12 46.8 77.68 47.4 78.76 47.4H81.28V55.08H79.08C78 55.08 77.4 55.68 77.4 56.76C77.4 57.84 78 58.44 79.08 58.44H81.28V68C80.52 68.16 79.76 68.28 79 68.4C76.76 68.76 76 70.12 76.56 72.12C77.12 74.08 78.64 74.76 80.72 73.92C84.52 72.44 88.56 70.4 91.32 68.12C91.92 67.6 92.08 67.04 91.72 66.32ZM97.92 47.4C97.92 47.12 98.12 46.92 98.4 46.92H104.32C104.6 46.92 104.8 47.12 104.8 47.4V49.84H97.92V47.4ZM97.92 53.12H104.8V56.2H97.92V53.12ZM97.92 59.48H104.8V62.28C104.8 62.56 104.6 62.76 104.32 62.76H98.4C98.12 62.76 97.92 62.56 97.92 62.28V59.48ZM152.2 74.4C149.36 72.56 147.36 69.92 146.32 67.28H150.92C151.96 67.28 152.56 66.68 152.56 65.64C152.56 64.6 151.96 64 150.92 64H146.12C146.24 62.88 146.32 61.68 146.32 60.44H149.64C150.68 60.44 151.28 59.84 151.28 58.8C151.28 57.76 150.68 57.16 149.64 57.16H141.2L141.32 56.84C142 55.44 141.8 54.4 140.88 53.84H150.72C151.76 53.84 152.36 53.24 152.36 52.2C152.36 51.16 151.76 50.56 150.72 50.56H149.28C149.6 49.28 149.92 47.8 150.16 46.08C150.4 44.36 149.4 43.32 147.76 43.08C146.28 42.88 145.2 43.24 144.48 44.16H138.8C137.76 44.16 137.12 44.76 137.12 45.8C137.12 46.84 137.72 47.44 138.76 47.44H144.24C144.56 47.44 144.72 47.64 144.68 47.96C144.56 48.92 144.44 49.72 144.28 50.56H137.16C136.12 50.56 135.52 51.16 135.52 52.2C135.52 53.24 136.12 53.84 137.16 53.84H138C137.6 54.16 137.32 54.72 137.16 55.44C136.76 57.72 136.04 59.72 135.04 61.6V50.32C135.72 48.76 136.28 47.16 136.72 45.56C137.16 43.92 136.36 42.48 134.68 42.2C132.76 41.84 131.64 42.72 131.36 44.12C130.56 48.2 129.52 52.36 127.76 56.24C127.28 54.44 126.68 52.76 125.96 51.2C127.32 49.8 128.52 48.2 129.44 46.6C130.44 44.88 130.12 43.52 128.56 42.72C127 41.92 125.68 42.44 124.84 44.2C124.44 45.2 123.96 46.12 123.44 47C122.48 45.76 121.44 44.6 120.24 43.48C119.52 42.8 118.8 42.76 118.16 43.32C117.56 43.88 117.52 44.56 118.04 45.36C119.2 47.2 120.16 48.92 120.92 50.6C119.88 51.8 118.8 52.88 117.68 53.76C116.96 54.44 116.8 55.12 117.24 55.84C117.68 56.6 118.44 56.76 119.28 56.28C120.28 55.8 121.32 55.16 122.32 54.44C122.68 55.6 122.92 56.8 123.12 58.08C121.8 61.36 119.96 64.24 117.48 66.64C116.84 67.24 116.8 67.92 117.28 68.6C117.72 69.28 118.36 69.32 119.28 68.8C120.88 67.92 122.32 66.76 123.56 65.4C123.56 73 123.28 74.68 122 74.8C121.28 74.88 120.44 74.64 119.32 74.12C118.44 73.72 117.76 73.8 117.28 74.48C116.8 75.16 116.88 75.88 117.44 76.56C119.16 78.6 121.04 79.6 123.08 79.6C127.4 79.6 128.92 76.12 128.88 66.2C128.88 64 128.76 61.96 128.48 60.04C128.8 59.96 129.12 59.72 129.4 59.4L129.84 58.92V77.48C129.84 78.92 130.76 79.68 132.44 79.68C134.12 79.68 135.04 78.92 135.04 77.48V62.92C135.12 63.04 135.2 63.12 135.28 63.2C135.76 63.64 136.28 63.64 136.8 63.16C137.68 62.48 138.52 61.52 139.32 60.44H140.92C140.88 61.72 140.84 62.88 140.76 64H137.16C136.12 64 135.52 64.6 135.52 65.64C135.52 66.68 136.12 67.28 137.16 67.28H140.4C139.76 71.56 138.4 74.44 136.08 76.88C135.44 77.56 135.32 78.24 135.8 78.92C136.28 79.56 136.92 79.72 137.76 79.24C140.96 77.44 143.28 74.48 144.68 70.64C145.52 73.72 147.04 76.6 149 78.48C150.12 79.56 151.68 79.52 152.8 78.12C153.84 76.84 153.68 75.36 152.2 74.4ZM191.12 68.92C187.76 66.2 185.08 63 183.04 59.32C185.6 58.2 188.16 56.6 190.28 54.52C191.88 53 191.8 51.2 190.2 49.96C188.4 48.56 186.8 48.6 185.52 50.44C184.28 52.2 182.96 54.04 181.32 55.84C180.44 53.88 179.76 51.8 179.16 49.6V45.04C179.16 42.92 178 41.88 175.88 41.88C173.76 41.88 172.6 42.92 172.6 45.04V52.32C172.28 51.68 171.76 51.24 171.08 50.96C169.44 50.28 167.64 50.52 166.48 51.76H159.56C158.44 51.76 157.84 52.36 157.84 53.48C157.84 54.6 158.44 55.2 159.56 55.2H166.16C166.48 55.2 166.68 55.4 166.6 55.72C165 63.28 162.48 68.8 157.64 73.72C157 74.4 156.88 75.08 157.36 75.8C157.84 76.52 158.48 76.68 159.4 76.16C165.72 72.48 170.6 64.88 172.6 56.28V72.6C172.6 74.72 171.68 75.16 168.4 74.76C167.12 74.6 166.52 75 166.32 75.8C166.08 76.68 166.44 77.44 167.36 77.88C173.84 81 179.16 79.36 179.16 74.12V61.44C180.96 66.68 183.4 71 186.56 74.36C188.48 76.44 190.6 76.52 192.2 74.56C193.84 72.56 193.28 70.72 191.12 68.92ZM209.52 45.56C209.92 43.68 209.2 42.28 206.96 41.92C205.04 41.6 203.64 42.56 203.4 44.4C202.64 50.08 200.6 57.32 197.52 61.68C196.96 62.48 196.92 63.24 197.52 63.84C198.12 64.44 198.84 64.28 199.56 63.68C200.04 63.28 200.56 62.84 201.04 62.32V76.92C201.04 78.68 202.16 79.64 204.16 79.64C206.16 79.64 207.28 78.68 207.28 76.92V52.44C208.28 50.12 209.04 47.76 209.52 45.56ZM231.04 58.6H223.76V55.52C226.28 53.96 228.92 51.72 230.64 49.72C232.28 47.76 232.08 45.52 230.48 44.36C228.92 43.24 226.96 43.36 225.52 44.4H212.8C211.72 44.4 211.12 45.08 211.12 46.24C211.12 47.4 211.72 48.08 212.8 48.08H224.6C224.96 48.08 225.12 48.32 224.92 48.64C224.32 49.76 223.48 50.96 222.44 52.2C221.96 51.92 221.32 51.8 220.56 51.8C218.48 51.8 217.36 52.8 217.36 54.88V58.6H210.16C208.92 58.6 208.24 59.28 208.24 60.52C208.24 61.76 208.92 62.44 210.16 62.44H217.36V73C217.36 74.84 216.56 75.16 212.28 74.64C211.28 74.52 210.68 74.8 210.48 75.6C210.28 76.4 210.56 77.04 211.32 77.48C217.92 81.32 223.76 79.68 223.76 74.24V62.44H231.04C232.28 62.44 232.96 61.76 232.96 60.52C232.96 59.28 232.28 58.6 231.04 58.6ZM241.8 66.84C243.36 66.84 244.44 66 244.56 64.44L245.8 50.2C246.04 47.52 244.48 46.04 241.8 46.04C239.16 46.04 237.56 47.52 237.8 50.2L239 64.44C239.12 66 240.24 66.84 241.8 66.84ZM241.8 76.56C243.96 76.56 245.8 74.8 245.8 72.56C245.8 70.52 243.96 68.72 241.8 68.72C239.56 68.72 237.72 70.52 237.72 72.56C237.72 74.8 239.56 76.56 241.8 76.56ZM255.355 66.84C256.915 66.84 257.995 66 258.115 64.44L259.355 50.2C259.595 47.52 258.035 46.04 255.355 46.04C252.715 46.04 251.115 47.52 251.355 50.2L252.555 64.44C252.675 66 253.795 66.84 255.355 66.84ZM255.355 76.56C257.515 76.56 259.355 74.8 259.355 72.56C259.355 70.52 257.515 68.72 255.355 68.72C253.115 68.72 251.275 70.52 251.275 72.56C251.275 74.8 253.115 76.56 255.355 76.56Z" fill="black"/>
<defs>
<filter id="filter0_d" x="0" y="3.05176e-05" width="299" height="140" filterUnits="userSpaceOnUse" color-interpolation-filters="sRGB">
<feFlood flood-opacity="0" result="BackgroundImageFix"/>
<feColorMatrix in="SourceAlpha" type="matrix" values="0 0 0 0 0 0 0 0 0 0 0 0 0 0 0 0 0 0 127 0"/>
<feOffset dx="3" dy="9"/>
<feGaussianBlur stdDeviation="6.5"/>
<feColorMatrix type="matrix" values="0 0 0 0 0 0 0 0 0 0 0 0 0 0 0 0 0 0 0.25 0"/>
<feBlend mode="normal" in2="BackgroundImageFix" result="effect1_dropShadow"/>
<feBlend mode="normal" in="SourceGraphic" in2="effect1_dropShadow" result="shape"/>
</filter>
</defs>
</svg>
