<svg width="256" height="256" viewBox="0 0 256 256" fill="none" xmlns="http://www.w3.org/2000/svg">
<path d="M177.179 93.5C178.779 110.3 157.512 125 144.679 132.5C120.512 137.667 69.8788 148 60.6788 148C51.1805 148 47.3903 130.681 38.6787 125C27.1787 117.5 13.1788 136 28.6788 144C44.1788 152 64.1788 152.5 60.6788 169.5C56.48 189.894 16.1787 177 16.1787 187.5C16.1787 187.5 5.28331 199.36 18.6788 205C28.1788 209 89.6788 174 98.6788 179.5C107.679 185 109.179 198.5 98.6788 208C88.1788 217.5 58.4198 215.885 68.1788 228C82.6788 246 107.679 214.5 117.179 205C126.679 195.5 131.179 178.5 144.679 175.5C158.179 172.5 175.179 219 190.679 218.5C206.179 218 203.679 205 196.179 202.5C174.966 195.429 164.179 170.5 169.179 160C174.179 149.5 181.179 148.5 188.679 144C196.179 139.5 226.997 135.144 236.179 140.5C242.179 144 252.179 122 236.179 125C219.821 128.067 197.679 132.5 188.679 132.5C179.679 132.5 175.179 127.5 181.179 116C187.179 104.5 190.179 91 188.679 85C187.179 79 175.579 66.4287 171.679 72C168.179 77 175.179 72.5 177.179 93.5Z" fill="white" stroke="black" stroke-width="2"/>
<path d="M162.679 109C162.679 127.366 153.431 139.565 140.499 147.223C127.52 154.909 110.838 158 96.1788 158C88.9726 158 83.5085 156.148 79.3309 152.87C75.1417 149.582 72.1551 144.79 70.0424 138.753C65.8011 126.634 65.1788 109.806 65.1788 91C65.1788 72.1942 65.8011 55.3662 70.0424 43.2471C72.1551 37.2105 75.1417 32.4178 79.3309 29.1305C83.5085 25.8522 88.9726 24 96.1788 24C103.301 24 111.02 26.9246 118.637 31.989C126.245 37.0473 133.683 44.1974 140.222 52.5339C153.318 69.2304 162.679 90.5185 162.679 109Z" fill="white" stroke="black" stroke-width="2"/>
<path d="M133.309 164.293C132.867 165.416 134.473 161.293 138.662 161.481C142.852 161.67 144.667 159.922 144.403 158.799" stroke="black" stroke-width="2" stroke-linecap="round" stroke-linejoin="round"/>
<circle cx="104.761" cy="177.583" r="9.58273" fill="#FF7C7C" fill-opacity="0.19"/>
<circle cx="173.762" cy="139.583" r="9.58273" fill="#FF7C7C" fill-opacity="0.19"/>
<circle cx="111.179" cy="168" r="9" fill="black"/>
<circle cx="159.179" cy="146" r="9" fill="black"/>
<path d="M73.1788 98C74.8454 98.8333 78.8788 100.6 81.6788 101M73.1788 105.5C76.1788 106.5 82.6788 108.5 84.6788 108.5" stroke="black"/>
<path d="M73.1788 112C76.1788 113.167 82.6788 115.4 84.6788 115" stroke="black"/>
</svg>
