<svg width="256" height="257" viewBox="0 0 256 257" fill="none" xmlns="http://www.w3.org/2000/svg">
<g clip-path="url(#clip0)">
<path d="M233.34 78.4689C223.202 78.6412 211.357 89.4353 206.701 94.8109C201.721 104.164 192.346 123.969 194.678 128.359C197.01 132.749 234.331 142.578 252.699 146.944L228.856 112.215L246.97 85.0554C246.651 82.7881 243.478 78.2966 233.34 78.4689Z" fill="white" stroke="black" stroke-width="2" stroke-linecap="round" stroke-linejoin="round"/>
<path d="M12.7657 93.0966C7.0378 103.671 6.52376 120.818 6.98273 128.07L9.73651 153.404L5.60583 158.637L12.4903 159.463C13.8672 164.144 22.1285 180.392 30.3899 190.305C36.9989 198.236 50.7679 208.664 56.8262 212.886L55.7247 223.075L65.0875 218.394C68.1167 219.771 82.4364 225.554 92.35 226.93C100.281 228.032 114.747 227.022 120.989 226.38L125.395 233.815L127.323 225.003C132.831 224.177 152.382 217.843 158.441 213.712C163.287 210.408 172.944 202.055 177.166 198.291L185.428 200.494L181.573 192.233C185.428 188.377 196.168 171.029 199.197 162.217C201.62 155.167 204.613 138.35 205.806 130.823L217.647 124.765L205.806 122.011C205.439 123.664 204.704 125.812 204.704 121.185C204.704 115.402 198.646 93.0966 195.066 84.2845C192.202 77.2348 180.655 63.1722 175.239 57.0221L176.891 47.3838L169.18 52.0653C164.499 48.4853 151.006 41.8763 145.223 39.3979C140.596 37.4151 121.081 32.5134 111.902 30.3104L108.322 23.7013L105.017 30.8611C91.7992 30.5858 78.8564 34.9918 65.6383 39.9486C55.0638 43.9141 40.3035 54.8191 34.2452 59.7759L28.1868 57.8482L30.9406 65.5588C26.094 68.643 19.7419 80.6128 17.1717 86.2122L7.53348 84.8353L12.7657 93.0966Z" fill="white"/>
<path d="M51.0432 71.0664L50.4925 63.6311L55.4493 68.5879M125.12 55.9206L132.28 45.7316L133.657 57.5728M43.0573 162.217C41.9558 163.098 39.8445 171.212 38.9266 175.159L47.4633 168.55M107.496 199.668L113.554 212.335L116.583 199.393M165.05 179.565L173.311 185.624L170.282 173.507M179.92 123.939L191.211 118.982L176.065 117.055M6.98273 128.07C6.52376 120.818 7.0378 103.671 12.7657 93.0966L7.53348 84.8353L17.1717 86.2122C19.7419 80.6128 26.094 68.643 30.9406 65.5588L28.1868 57.8482L34.2452 59.7759C40.3035 54.8191 55.0638 43.9141 65.6383 39.9486C78.8564 34.9918 91.7992 30.5858 105.017 30.8611L108.322 23.7013L111.902 30.3104C121.081 32.5134 140.596 37.4151 145.223 39.3979C151.006 41.8763 164.499 48.4853 169.18 52.0653L176.891 47.3838L175.239 57.0221C180.655 63.1722 192.202 77.2348 195.066 84.2845C198.646 93.0966 204.704 115.402 204.704 121.185C204.704 125.812 205.439 123.664 205.806 122.011L217.647 124.765L205.806 130.823C204.612 138.35 201.62 155.167 199.197 162.217C196.168 171.029 185.428 188.377 181.573 192.233L185.428 200.494L177.166 198.291C172.944 202.055 163.287 210.408 158.441 213.712C152.382 217.843 132.831 224.177 127.323 225.003L125.395 233.815L120.989 226.38C114.747 227.022 100.281 228.032 92.35 226.93C82.4364 225.554 68.1167 219.771 65.0875 218.394L55.7247 223.075L56.8262 212.886C50.7679 208.664 36.999 198.236 30.3899 190.305C22.1285 180.392 13.8672 164.144 12.4903 159.463L5.60583 158.637L9.73651 153.404L6.98273 128.07Z" stroke="black" stroke-width="2" stroke-linecap="round" stroke-linejoin="round"/>
<path d="M143.834 110.643C145.188 110.081 158.916 98.7633 162.639 102.979C166.363 107.195 163.316 125.043 159.423 124.622C154.876 124.457 145.069 123.732 142.22 122.155" stroke="black" stroke-width="2" stroke-linecap="round" stroke-linejoin="round"/>
<path d="M29.7213 110.643C28.5734 110.081 16.9344 98.7633 13.7775 102.979C10.6207 107.195 13.2036 125.043 16.5039 124.622C20.3593 124.457 28.674 123.732 31.0894 122.155" stroke="black" stroke-width="2" stroke-linecap="round" stroke-linejoin="round"/>
<path d="M67.6135 91.7567C67.6135 92.3005 67.3202 92.871 66.691 93.3404C66.0616 93.8099 65.1456 94.13 64.0908 94.13C63.0361 94.13 62.1201 93.8099 61.4907 93.3404C60.8614 92.871 60.5682 92.3005 60.5682 91.7567C60.5682 91.2128 60.8614 90.6423 61.4907 90.1729C62.1201 89.7035 63.0361 89.3833 64.0908 89.3833C65.1456 89.3833 66.0616 89.7035 66.691 90.1729C67.3202 90.6423 67.6135 91.2128 67.6135 91.7567Z" fill="black" stroke="black" stroke-width="2" stroke-linecap="round" stroke-linejoin="round"/>
<path d="M100.149 91.7567C100.149 92.3005 99.8558 92.871 99.2265 93.3404C98.5971 93.8099 97.6812 94.13 96.6264 94.13C95.5717 94.13 94.6557 93.8099 94.0263 93.3404C93.397 92.871 93.1038 92.3005 93.1038 91.7567C93.1038 91.2128 93.397 90.6423 94.0263 90.1729C94.6557 89.7035 95.5717 89.3833 96.6264 89.3833C97.6812 89.3833 98.5971 89.7035 99.2265 90.1729C99.8558 90.6423 100.149 91.2128 100.149 91.7567Z" fill="black" stroke="black" stroke-width="2" stroke-linecap="round" stroke-linejoin="round"/>
<path d="M75.2386 91.7713C74.7408 93.3177 75.1571 96.3836 80.8048 96.2766C86.4524 96.1695 86.9593 93.169 86.5067 91.6821" stroke="black" stroke-width="2" stroke-linecap="round" stroke-linejoin="round"/>
<circle cx="51.183" cy="100.427" r="12.9079" fill="#FF7C7C" fill-opacity="0.19"/>
<circle cx="110.535" cy="101.291" r="12.9079" fill="#FF7C7C" fill-opacity="0.19"/>
<path d="M211.428 106.847L218.637 103.963M211.908 112.133L219.598 111.653M212.87 118.862L221.04 121.265" stroke="black" stroke-linecap="round" stroke-linejoin="round"/>
<path d="M146.546 115.017L151.352 113.575M146.065 118.862L150.871 119.342" stroke="black" stroke-linecap="round" stroke-linejoin="round"/>
<path d="M19.6648 112.133L28.3158 115.017M20.626 119.342L26.8739 119.823" stroke="black" stroke-linecap="round" stroke-linejoin="round"/>
</g>
<defs>
<clipPath id="clip0">
<rect width="256" height="256" fill="white" transform="translate(0 0.758087)"/>
</clipPath>
</defs>
</svg>
