<svg width="207" height="204" viewBox="0 0 207 204" fill="none" xmlns="http://www.w3.org/2000/svg">
<path d="M8.87013 67.5875C3.37403 77.7341 2.88079 94.1872 3.32118 101.145L5.96354 125.455L2 130.476L8.6059 131.268C9.92708 135.76 17.8542 151.35 25.7812 160.863C32.1229 168.473 45.3347 178.478 51.1479 182.53L50.0909 192.307L59.075 187.815C61.9816 189.136 75.7218 194.685 85.2343 196.006C92.8443 197.063 106.726 196.094 112.715 195.478L116.943 202.612L118.792 194.156C124.077 193.364 142.838 187.286 148.651 183.323C153.301 180.152 162.567 172.137 166.619 168.526L174.546 170.639L170.847 162.712C174.546 159.013 184.851 142.366 187.758 133.911C190.083 127.146 192.955 111.01 194.1 103.788L205.462 97.9746L194.1 95.3322C193.747 96.9176 193.043 98.9787 193.043 94.5395C193.043 88.9906 187.229 67.5875 183.794 59.1319C181.046 52.3675 169.966 38.8738 164.769 32.9725L166.355 23.7243L158.956 28.2163C154.464 24.7812 141.517 18.4396 135.968 16.0614C131.528 14.1589 112.803 9.45554 103.995 7.34166L100.56 1L97.3892 7.87014C84.7058 7.6059 72.2868 11.8337 59.6034 16.5899C49.4568 20.3949 35.2937 30.8587 29.4805 35.6149L23.6673 33.7653L26.3097 41.1639C21.6592 44.1233 15.5641 55.6088 13.0979 60.9816L3.84965 59.6604L8.87013 67.5875Z" fill="white"/>
<path d="M45.5989 46.4486L45.0705 39.3142L49.8267 44.0705M116.678 31.9156L123.549 22.1389L124.87 33.501M37.9361 133.911C36.8791 134.756 34.8533 142.542 33.9725 146.33L42.1639 139.988M99.7673 169.847L105.58 182.002L108.487 169.583M154.993 150.558L162.92 156.371L160.013 144.744M169.261 97.1819L180.095 92.4256L165.562 90.576M3.32118 101.145C2.88079 94.1872 3.37403 77.7341 8.87013 67.5875L3.84965 59.6604L13.0979 60.9816C15.5641 55.6088 21.6592 44.1233 26.3097 41.1639L23.6673 33.7653L29.4805 35.6149C35.2937 30.8587 49.4568 20.3949 59.6034 16.5899C72.2868 11.8337 84.7058 7.6059 97.3892 7.87014L100.56 1L103.995 7.34166C112.803 9.45554 131.528 14.1589 135.968 16.0614C141.517 18.4396 154.464 24.7812 158.956 28.2163L166.355 23.7243L164.769 32.9725C169.966 38.8738 181.046 52.3675 183.794 59.1319C187.229 67.5875 193.043 88.9906 193.043 94.5395C193.043 98.9787 193.747 96.9176 194.1 95.3322L205.462 97.9746L194.1 103.788C192.955 111.01 190.083 127.146 187.758 133.911C184.851 142.366 174.546 159.013 170.847 162.712L174.546 170.639L166.619 168.526C162.567 172.137 153.301 180.152 148.651 183.323C142.838 187.286 124.077 193.364 118.792 194.156L116.943 202.612L112.715 195.478C106.726 196.094 92.8443 197.063 85.2343 196.006C75.7218 194.685 61.9816 189.136 59.075 187.815L50.0909 192.307L51.1479 182.53C45.3347 178.478 32.1229 168.473 25.7812 160.863C17.8542 151.35 9.92708 135.76 8.6059 131.268L2 130.476L5.96354 125.455L3.32118 101.145Z" stroke="black" stroke-width="2" stroke-linecap="round" stroke-linejoin="round"/>
<path d="M59.7179 64.8045C59.7179 65.3483 59.4246 65.9189 58.7953 66.3883C58.1659 66.8577 57.2499 67.1779 56.1952 67.1779C55.1405 67.1779 54.2245 66.8577 53.5951 66.3883C52.9658 65.9189 52.6725 65.3483 52.6725 64.8045C52.6725 64.2607 52.9658 63.6901 53.5951 63.2208C54.2245 62.7513 55.1405 62.4312 56.1952 62.4312C57.2499 62.4312 58.1659 62.7513 58.7953 63.2208C59.4246 63.6901 59.7179 64.2607 59.7179 64.8045Z" fill="black" stroke="black" stroke-width="2" stroke-linecap="round" stroke-linejoin="round"/>
<path d="M92.2534 64.8045C92.2534 65.3483 91.9602 65.9189 91.3309 66.3883C90.7015 66.8577 89.7855 67.1779 88.7308 67.1779C87.6761 67.1779 86.7601 66.8577 86.1307 66.3883C85.5014 65.9189 85.2081 65.3483 85.2081 64.8045C85.2081 64.2607 85.5014 63.6901 86.1307 63.2208C86.7601 62.7513 87.6761 62.4312 88.7308 62.4312C89.7855 62.4312 90.7015 62.7513 91.3309 63.2208C91.9602 63.6901 92.2534 64.2607 92.2534 64.8045Z" fill="black" stroke="black" stroke-width="2" stroke-linecap="round" stroke-linejoin="round"/>
<path d="M67.3429 64.8191C66.8452 66.3655 67.2615 69.4315 72.9091 69.3244C78.5568 69.2174 79.0636 66.2168 78.6111 64.7299" stroke="black" stroke-width="2" stroke-linecap="round" stroke-linejoin="round"/>
<circle cx="43.2874" cy="73.4749" r="12.9079" fill="#FF7C7C" fill-opacity="0.19"/>
<circle cx="102.639" cy="74.339" r="12.9079" fill="#FF7C7C" fill-opacity="0.19"/>
<path d="M136.568 83.1277C137.754 82.2665 148.478 68.0696 153.079 71.3054C157.68 74.5413 158.862 92.6088 154.978 93.1029C150.517 93.9986 140.81 95.5721 137.672 94.6999" stroke="black" stroke-width="2" stroke-linecap="round" stroke-linejoin="round"/>
<path d="M140.221 86.752L144.561 84.2332M140.647 90.6033L145.433 89.9544" stroke="black" stroke-linecap="round" stroke-linejoin="round"/>
<path d="M22.11 82.3138C21.1207 81.5044 12.3733 67.8281 8.33722 71.2121C4.30112 74.596 2.74069 92.5622 6.05013 92.9053C9.84138 93.6249 18.1018 94.8182 20.8135 93.8342" stroke="black" stroke-width="2" stroke-linecap="round" stroke-linejoin="round"/>
<path d="M11.9789 81.4684L19.7429 86.2511M11.2687 88.7066L17.2419 90.601" stroke="black" stroke-linecap="round" stroke-linejoin="round"/>
</svg>
