<svg width="146" height="85" viewBox="0 0 146 85" fill="none" xmlns="http://www.w3.org/2000/svg">
<rect width="146" height="85" fill="white"/>
<mask id="path-1-inside-1" fill="white">
<ellipse rx="4.5226" ry="0.439863" transform="matrix(1 0.000668827 -0.0393669 0.999225 55.9262 33.4425)"/>
</mask>
<ellipse rx="4.5226" ry="0.439863" transform="matrix(1 0.000668827 -0.0393669 0.999225 55.9262 33.4425)" fill="black"/>
<path d="M58.4488 33.4442C58.4776 32.7118 58.8866 32.2404 59.0972 32.0463C59.3076 31.8524 59.502 31.7583 59.566 31.7286C59.7053 31.6637 59.7838 31.6529 59.7152 31.6685C59.6105 31.6922 59.3779 31.7296 58.9967 31.7663C58.2578 31.8373 57.193 31.8844 55.9876 31.8836L55.8301 35.8805C57.1225 35.8814 58.3228 35.8316 59.2271 35.7447C59.6674 35.7023 60.1009 35.6454 60.4581 35.5643C60.6204 35.5275 60.8788 35.4616 61.1408 35.3396C61.2661 35.2813 61.5077 35.1582 61.7501 34.9347C61.9928 34.7111 62.4187 34.2097 62.4488 33.4469L58.4488 33.4442ZM55.9876 31.8836C54.7822 31.8828 53.7211 31.8343 52.9879 31.7623C52.6096 31.7251 52.3799 31.6874 52.2772 31.6635C52.2098 31.6478 52.2874 31.6588 52.4216 31.7238C52.4832 31.7536 52.6702 31.8479 52.8654 32.0421C53.0607 32.2365 53.4324 32.7084 53.4036 33.4409L49.4036 33.4382C49.3735 34.201 49.7599 34.7029 49.985 34.9269C50.2098 35.1506 50.4416 35.274 50.5623 35.3325C50.8147 35.4549 51.068 35.5211 51.2273 35.5582C51.5781 35.6397 52.0071 35.6972 52.444 35.7401C53.3414 35.8283 54.5378 35.8797 55.8301 35.8805L55.9876 31.8836ZM53.4036 33.4409C53.3747 34.1733 52.9658 34.6447 52.7552 34.8388C52.5448 35.0327 52.3503 35.1268 52.2864 35.1565C52.1471 35.2214 52.0685 35.2322 52.1372 35.2166C52.2418 35.1928 52.4744 35.1555 52.8557 35.1188C53.5945 35.0478 54.6594 35.0007 55.8648 35.0015L56.0222 31.0046C54.7299 31.0037 53.5295 31.0535 52.6252 31.1404C52.1849 31.1828 51.7515 31.2396 51.3943 31.3208C51.232 31.3576 50.9736 31.4235 50.7115 31.5455C50.5862 31.6038 50.3447 31.7269 50.1022 31.9504C49.8596 32.174 49.4336 32.6754 49.4036 33.4382L53.4036 33.4409ZM55.8648 35.0015C57.0701 35.0023 58.1312 35.0508 58.8644 35.1228C59.2428 35.16 59.4724 35.1977 59.5752 35.2216C59.6426 35.2373 59.5649 35.2263 59.4307 35.1613C59.3692 35.1315 59.1821 35.0372 58.987 34.843C58.7917 34.6486 58.4199 34.1767 58.4488 33.4442L62.4488 33.4469C62.4788 32.6841 62.0924 32.1822 61.8674 31.9582C61.6426 31.7345 61.4107 31.6111 61.29 31.5526C61.0376 31.4302 60.7844 31.364 60.625 31.3269C60.2742 31.2453 59.8453 31.1879 59.4084 31.145C58.5109 31.0568 57.3146 31.0054 56.0222 31.0046L55.8648 35.0015Z" fill="black" mask="url(#path-1-inside-1)"/>
<mask id="path-3-inside-2" fill="white">
<ellipse rx="4.5226" ry="0.439863" transform="matrix(1 0.000668827 -0.0393669 0.999225 88.4613 33.4643)"/>
</mask>
<ellipse rx="4.5226" ry="0.439863" transform="matrix(1 0.000668827 -0.0393669 0.999225 88.4613 33.4643)" fill="black"/>
<path d="M90.9839 33.466C91.0128 32.7335 91.4217 32.2621 91.6324 32.068C91.8427 31.8741 92.0372 31.7801 92.1011 31.7503C92.2404 31.6854 92.319 31.6746 92.2503 31.6902C92.1457 31.714 91.9131 31.7514 91.5318 31.788C90.793 31.859 89.7281 31.9062 88.5228 31.9053L88.3653 35.9022C89.6577 35.9031 90.858 35.8533 91.7623 35.7664C92.2026 35.7241 92.636 35.6672 92.9933 35.5861C93.1555 35.5492 93.4139 35.4833 93.676 35.3613C93.8013 35.303 94.0428 35.1799 94.2853 34.9565C94.528 34.7328 94.9539 34.2315 94.9839 33.4686L90.9839 33.466ZM88.5228 31.9053C87.3174 31.9045 86.2563 31.856 85.5231 31.784C85.1447 31.7468 84.9151 31.7091 84.8123 31.6852C84.7449 31.6696 84.8226 31.6805 84.9568 31.7455C85.0184 31.7754 85.2054 31.8697 85.4005 32.0638C85.5958 32.2582 85.9676 32.7301 85.9387 33.4626L81.9387 33.4599C81.9087 34.2227 82.2951 34.7247 82.5201 34.9486C82.7449 35.1723 82.9768 35.2958 83.0975 35.3543C83.3499 35.4766 83.6031 35.5428 83.7625 35.5799C84.1133 35.6615 84.5422 35.7189 84.9792 35.7619C85.8766 35.85 87.0729 35.9014 88.3653 35.9022L88.5228 31.9053ZM85.9387 33.4626C85.9099 34.1951 85.501 34.6665 85.2903 34.8606C85.0799 35.0545 84.8855 35.1485 84.8215 35.1783C84.6822 35.2431 84.6037 35.2539 84.6724 35.2383C84.777 35.2146 85.0096 35.1772 85.3909 35.1405C86.1297 35.0695 87.1945 35.0224 88.3999 35.0232L88.5574 31.0263C87.265 31.0254 86.0647 31.0752 85.1604 31.1622C84.7201 31.2045 84.2867 31.2614 83.9294 31.3425C83.7672 31.3793 83.5087 31.4452 83.2467 31.5672C83.1214 31.6255 82.8798 31.7487 82.6374 31.9721C82.3947 32.1957 81.9688 32.6971 81.9387 33.4599L85.9387 33.4626ZM88.3999 35.0232C89.6053 35.024 90.6664 35.0725 91.3996 35.1446C91.7779 35.1817 92.0076 35.2194 92.1103 35.2433C92.1778 35.259 92.1001 35.2481 91.9659 35.183C91.9043 35.1532 91.7173 35.0589 91.5222 34.8647C91.3268 34.6704 90.9551 34.1984 90.9839 33.466L94.9839 33.4686C95.014 32.7058 94.6276 32.2039 94.4025 31.98C94.1777 31.7562 93.9459 31.6328 93.8252 31.5743C93.5728 31.4519 93.3196 31.3857 93.1602 31.3487C92.8094 31.2671 92.3805 31.2096 91.9435 31.1667C91.0461 31.0785 89.8498 31.0272 88.5574 31.0263L88.3999 35.0232Z" fill="black" mask="url(#path-3-inside-2)"/>
<path d="M67.0736 33.4416C66.5679 34.9854 66.9685 38.0535 72.6166 37.9754C78.2648 37.8973 78.787 34.8994 78.3421 33.4102" stroke="black" stroke-width="2" stroke-linecap="round" stroke-linejoin="round"/>
<circle cx="42.974" cy="41.9739" r="12.9079" transform="rotate(0.29411 42.974 41.9739)" fill="#FF7C7C" fill-opacity="0.19"/>
<circle cx="102.32" cy="43.1426" r="12.9079" transform="rotate(0.29411 102.32 43.1426)" fill="#FF7C7C" fill-opacity="0.19"/>
</svg>
