<svg width="146" height="85" viewBox="0 0 146 85" fill="none" xmlns="http://www.w3.org/2000/svg">
<rect width="146" height="85" fill="white"/>
<path d="M59.4488 33.388C59.446 33.9318 59.1498 34.5009 58.5181 34.967C57.8863 35.4332 56.9687 35.7487 55.914 35.7433C54.8593 35.7378 53.9449 35.413 53.318 34.9403C52.6911 34.4677 52.4008 33.8957 52.4036 33.3518C52.4064 32.808 52.7025 32.239 53.3342 31.7729C53.966 31.3066 54.8836 30.9912 55.9384 30.9966C56.9931 31.002 57.9074 31.3269 58.5344 31.7995C59.1613 32.2721 59.4516 32.8442 59.4488 33.388Z" fill="black" stroke="black" stroke-width="2" stroke-linecap="round" stroke-linejoin="round"/>
<path d="M91.984 33.555C91.9812 34.0988 91.685 34.6679 91.0533 35.134C90.4215 35.6002 89.5039 35.9157 88.4492 35.9103C87.3944 35.9048 86.4801 35.58 85.8531 35.1073C85.2263 34.6347 84.9359 34.0627 84.9387 33.5188C84.9415 32.975 85.2377 32.406 85.8694 31.9398C86.5012 31.4736 87.4188 31.1582 88.4735 31.1636C89.5282 31.169 90.4426 31.4939 91.0696 31.9665C91.6964 32.4391 91.9867 33.0112 91.984 33.555Z" fill="black" stroke="black" stroke-width="2" stroke-linecap="round" stroke-linejoin="round"/>
<path d="M67.0736 33.4416C66.5679 34.9854 66.9685 38.0535 72.6166 37.9754C78.2648 37.8973 78.787 34.8994 78.3421 33.4102" stroke="black" stroke-width="2" stroke-linecap="round" stroke-linejoin="round"/>
<circle cx="42.974" cy="41.9739" r="12.9079" transform="rotate(0.29411 42.974 41.9739)" fill="#FF7C7C" fill-opacity="0.19"/>
<circle cx="102.32" cy="43.1426" r="12.9079" transform="rotate(0.29411 102.32 43.1426)" fill="#FF7C7C" fill-opacity="0.19"/>
</svg>
