<svg width="146" height="85" viewBox="0 0 146 85" fill="none" xmlns="http://www.w3.org/2000/svg">
<rect width="146" height="85" fill="white"/>
<path d="M59.4488 33.4073C59.4481 33.5076 59.35 33.8384 58.6529 34.201C58.0024 34.5394 57.0362 34.7768 55.9161 34.7728C54.7961 34.7687 53.8334 34.5243 53.1878 34.1812C52.4961 33.8136 52.4028 33.4821 52.4036 33.3818C52.4043 33.2815 52.5024 32.9507 53.1994 32.5881C53.85 32.2497 54.8161 32.0123 55.9362 32.0163C57.0563 32.0204 58.019 32.2648 58.6645 32.6079C59.3563 32.9755 59.4495 33.307 59.4488 33.4073Z" fill="black" stroke="black" stroke-width="2" stroke-linecap="round" stroke-linejoin="round"/>
<path d="M91.9839 33.525C91.9832 33.6253 91.8852 33.9561 91.1881 34.3187C90.5376 34.6571 89.5714 34.8945 88.4513 34.8905C87.3312 34.8864 86.3685 34.642 85.723 34.2989C85.0312 33.9312 84.938 33.5998 84.9387 33.4995C84.9395 33.3992 85.0375 33.0684 85.7346 32.7058C86.3851 32.3674 87.3513 32.13 88.4714 32.134C89.5915 32.1381 90.5541 32.3824 91.1997 32.7255C91.8914 33.0932 91.9847 33.4247 91.9839 33.525Z" fill="black" stroke="black" stroke-width="2" stroke-linecap="round" stroke-linejoin="round"/>
<path d="M67.0736 33.4416C66.5679 34.9854 66.9685 38.0535 72.6166 37.9754C78.2648 37.8973 78.787 34.8994 78.3421 33.4102" stroke="black" stroke-width="2" stroke-linecap="round" stroke-linejoin="round"/>
<circle cx="42.974" cy="41.9739" r="12.9079" transform="rotate(0.29411 42.974 41.9739)" fill="#FF7C7C" fill-opacity="0.19"/>
<circle cx="102.32" cy="43.1426" r="12.9079" transform="rotate(0.29411 102.32 43.1426)" fill="#FF7C7C" fill-opacity="0.19"/>
</svg>
