<svg width="146" height="85" viewBox="0 0 146 85" fill="none" xmlns="http://www.w3.org/2000/svg">
<rect width="146" height="85" fill="white"/>
<mask id="path-1-inside-1" fill="white">
<ellipse rx="4.52261" ry="1.40896" transform="matrix(0.999998 0.00214387 -0.0122899 0.999924 55.9262 33.4186)"/>
</mask>
<ellipse rx="4.52261" ry="1.40896" transform="matrix(0.999998 0.00214387 -0.0122899 0.999924 55.9262 33.4186)" fill="black"/>
<path d="M58.4488 33.424C58.4532 33.0656 58.5782 32.7852 58.6953 32.6105C58.8031 32.4496 58.9046 32.3746 58.9203 32.3631C58.9413 32.3479 58.8425 32.4179 58.5405 32.511C57.9605 32.6897 57.0381 32.8299 55.9334 32.8276L55.8843 36.8273C57.2774 36.8302 58.6201 36.6599 59.6833 36.3322C60.2029 36.1721 60.7701 35.94 61.2529 35.5886C61.6954 35.2667 62.4349 34.5623 62.4488 33.4325L58.4488 33.424ZM55.9334 32.8276C54.8288 32.8252 53.9099 32.6811 53.3343 32.4998C53.0346 32.4055 52.9376 32.335 52.9581 32.3503C52.9736 32.3619 53.0732 32.4373 53.1771 32.5987C53.2899 32.7739 53.408 33.0548 53.4036 33.4131L49.4036 33.4046C49.3897 34.5343 50.1119 35.2418 50.5464 35.5657C51.0205 35.9191 51.582 36.1536 52.0976 36.316C53.1527 36.6482 54.4911 36.8243 55.8843 36.8273L55.9334 32.8276ZM53.4036 33.4131C53.3992 33.7715 53.2742 34.0519 53.1571 34.2266C53.0493 34.3875 52.9478 34.4625 52.932 34.474C52.9111 34.4892 53.0099 34.4192 53.3119 34.3261C53.8918 34.1474 54.8143 34.0072 55.9189 34.0095L55.9681 30.0098C54.5749 30.0069 53.2322 30.1772 52.1691 30.5049C51.6495 30.665 51.0822 30.8971 50.5994 31.2485C50.157 31.5705 49.4175 32.2749 49.4036 33.4046L53.4036 33.4131ZM55.9189 34.0095C57.0235 34.0119 57.9425 34.156 58.518 34.3373C58.8177 34.4316 58.9148 34.5021 58.8942 34.4868C58.8787 34.4752 58.7791 34.3998 58.6753 34.2385C58.5625 34.0632 58.4444 33.7823 58.4488 33.424L62.4488 33.4325C62.4627 32.3028 61.7405 31.5953 61.306 31.2714C60.8318 30.918 60.2703 30.6835 59.7547 30.5211C58.6997 30.1889 57.3612 30.0128 55.9681 30.0098L55.9189 34.0095Z" fill="black" mask="url(#path-1-inside-1)"/>
<mask id="path-3-inside-2" fill="white">
<ellipse rx="4.52261" ry="1.40896" transform="matrix(0.999998 0.00214387 -0.0122899 0.999924 88.4613 33.4884)"/>
</mask>
<ellipse rx="4.52261" ry="1.40896" transform="matrix(0.999998 0.00214387 -0.0122899 0.999924 88.4613 33.4884)" fill="black"/>
<path d="M90.9839 33.4938C90.9883 33.1354 91.1133 32.855 91.2304 32.6803C91.3382 32.5194 91.4397 32.4444 91.4555 32.433C91.4764 32.4177 91.3776 32.4878 91.0756 32.5808C90.4957 32.7596 89.5732 32.8998 88.4686 32.8974L88.4194 36.8971C89.8126 36.9001 91.1553 36.7297 92.2185 36.4021C92.738 36.2419 93.3053 36.0098 93.7881 35.6585C94.2305 35.3365 94.97 34.6321 94.9839 33.5024L90.9839 33.4938ZM88.4686 32.8974C87.364 32.895 86.445 32.7509 85.8695 32.5697C85.5698 32.4753 85.4727 32.4048 85.4933 32.4202C85.5088 32.4317 85.6084 32.5071 85.7123 32.6685C85.8251 32.8437 85.9431 33.1246 85.9387 33.483L81.9387 33.4744C81.9249 34.6041 82.647 35.3116 83.0815 35.6355C83.5557 35.9889 84.1172 36.2235 84.6328 36.3858C85.6879 36.718 87.0263 36.8941 88.4194 36.8971L88.4686 32.8974ZM85.9387 33.483C85.9343 33.8414 85.8094 34.1217 85.6923 34.2964C85.5844 34.4573 85.483 34.5323 85.4672 34.5438C85.4462 34.5591 85.545 34.489 85.847 34.3959C86.427 34.2172 87.3495 34.077 88.4541 34.0794L88.5032 30.0797C87.1101 30.0767 85.7674 30.247 84.7042 30.5747C84.1847 30.7348 83.6174 30.9669 83.1346 31.3183C82.6922 31.6403 81.9526 32.3447 81.9387 33.4744L85.9387 33.483ZM88.4541 34.0794C89.5587 34.0817 90.4777 34.2259 91.0532 34.4071C91.3529 34.5014 91.45 34.5719 91.4294 34.5566C91.4139 34.545 91.3143 34.4696 91.2104 34.3083C91.0976 34.133 90.9795 33.8522 90.9839 33.4938L94.9839 33.5024C94.9978 32.3726 94.2756 31.6651 93.8412 31.3413C93.367 30.9878 92.8055 30.7533 92.2899 30.591C91.2348 30.2588 89.8964 30.0827 88.5032 30.0797L88.4541 34.0794Z" fill="black" mask="url(#path-3-inside-2)"/>
<path d="M67.0736 33.4416C66.5679 34.9854 66.9685 38.0535 72.6166 37.9754C78.2648 37.8973 78.787 34.8994 78.3421 33.4102" stroke="black" stroke-width="2" stroke-linecap="round" stroke-linejoin="round"/>
<circle cx="42.974" cy="41.9739" r="12.9079" transform="rotate(0.29411 42.974 41.9739)" fill="#FF7C7C" fill-opacity="0.19"/>
<circle cx="102.32" cy="43.1426" r="12.9079" transform="rotate(0.29411 102.32 43.1426)" fill="#FF7C7C" fill-opacity="0.19"/>
</svg>
